<svg id="svg" version="1.1" width="400" height="400" viewBox="0 0 400 400" xmlns="http://www.w3.org/2000/svg" xmlns:xlink="http://www.w3.org/1999/xlink"><g id="svgg"><path id="path0" d="M199.048 7.700 C 198.707 8.635,197.154 13.450,195.595 18.400 C 194.037 23.350,192.616 27.670,192.438 28.000 C 192.165 28.505,190.255 28.632,180.357 28.800 L 168.600 29.000 173.400 32.570 C 176.040 34.533,180.270 37.665,182.800 39.530 C 185.330 41.394,187.460 42.968,187.534 43.028 C 187.647 43.118,184.612 52.872,181.576 62.178 C 179.878 67.382,178.690 67.904,193.800 56.807 C 197.099 54.383,199.890 52.400,200.000 52.400 C 200.110 52.400,202.901 54.383,206.200 56.807 C 221.310 67.904,220.122 67.382,218.424 62.178 C 215.388 52.872,212.353 43.118,212.466 43.028 C 212.540 42.968,214.670 41.394,217.200 39.530 C 219.730 37.665,223.960 34.533,226.600 32.570 L 231.400 29.000 219.643 28.800 C 209.745 28.632,207.835 28.505,207.562 28.000 C 207.384 27.670,205.963 23.350,204.405 18.400 C 201.006 7.606,200.436 6.000,200.000 6.000 C 199.816 6.000,199.388 6.765,199.048 7.700 M132.054 29.120 C 130.465 34.114,128.856 39.100,128.478 40.200 L 127.791 42.200 116.295 42.400 C 108.953 42.528,104.826 42.745,104.875 43.000 C 104.917 43.220,109.041 46.417,114.038 50.105 L 123.124 56.810 122.412 59.105 C 121.178 63.088,116.454 77.795,116.178 78.513 C 115.640 79.915,117.028 79.060,125.770 72.600 C 130.683 68.970,134.903 66.000,135.149 66.000 C 135.582 66.000,139.921 69.098,149.000 75.888 C 153.600 79.328,154.000 79.549,154.000 78.651 C 154.000 78.208,148.091 59.345,147.337 57.380 C 147.208 57.045,149.100 55.398,152.454 52.924 C 155.381 50.766,159.625 47.634,161.885 45.964 C 164.145 44.294,165.876 42.809,165.731 42.664 C 165.585 42.519,160.316 42.400,154.020 42.400 L 142.574 42.400 141.115 37.900 C 140.313 35.425,138.724 30.473,137.584 26.896 C 136.444 23.319,135.384 20.314,135.227 20.217 C 135.071 20.120,133.643 24.127,132.054 29.120 M264.663 20.299 C 264.363 20.783,263.760 22.617,259.595 35.700 L 257.462 42.400 245.998 42.400 C 239.692 42.400,234.415 42.519,234.269 42.664 C 234.124 42.809,235.855 44.294,238.115 45.964 C 240.375 47.634,244.619 50.766,247.546 52.924 C 250.900 55.398,252.792 57.045,252.663 57.380 C 251.909 59.345,246.000 78.208,246.000 78.651 C 246.000 79.549,246.400 79.328,251.000 75.888 C 260.079 69.098,264.418 66.000,264.851 66.000 C 265.097 66.000,269.317 68.970,274.230 72.600 C 282.972 79.060,284.360 79.915,283.822 78.513 C 283.546 77.795,278.822 63.088,277.588 59.105 L 276.876 56.810 285.962 50.105 C 290.959 46.417,295.083 43.220,295.125 43.000 C 295.174 42.745,291.045 42.528,283.701 42.400 L 272.200 42.200 271.466 40.000 C 271.062 38.790,269.434 33.752,267.849 28.804 C 266.176 23.583,264.839 20.014,264.663 20.299 M78.015 67.891 C 76.405 72.901,74.814 77.945,74.478 79.100 L 73.868 81.200 62.134 81.200 C 55.619 81.200,50.400 81.357,50.400 81.553 C 50.400 81.747,54.535 84.942,59.588 88.653 C 65.898 93.287,68.780 95.638,68.788 96.159 C 68.795 96.576,67.255 101.676,65.366 107.492 C 63.478 113.308,62.020 118.153,62.127 118.260 C 62.233 118.366,66.507 115.373,71.624 111.608 C 76.740 107.843,81.129 104.841,81.377 104.936 C 81.624 105.031,85.897 108.099,90.872 111.754 C 100.029 118.482,100.504 118.795,100.211 117.900 C 100.122 117.625,98.858 113.620,97.404 109.000 C 95.950 104.380,94.409 99.639,93.980 98.464 C 93.551 97.290,93.200 96.186,93.200 96.011 C 93.200 95.836,97.422 92.582,102.582 88.779 C 107.742 84.977,111.872 81.716,111.758 81.533 C 111.645 81.350,106.357 81.200,100.007 81.200 L 88.462 81.200 88.056 79.900 C 85.089 70.407,81.457 59.334,81.231 59.091 C 81.072 58.921,79.625 62.881,78.015 67.891 M318.726 59.008 C 318.541 59.317,314.128 72.913,311.944 79.900 L 311.538 81.200 299.993 81.200 C 293.643 81.200,288.355 81.350,288.242 81.533 C 288.128 81.716,292.258 84.977,297.418 88.779 C 302.578 92.582,306.800 95.836,306.800 96.011 C 306.800 96.186,306.449 97.290,306.020 98.464 C 305.591 99.639,304.050 104.380,302.596 109.000 C 301.142 113.620,299.878 117.625,299.789 117.900 C 299.496 118.795,299.971 118.482,309.128 111.754 C 314.103 108.099,318.376 105.031,318.623 104.936 C 318.871 104.841,323.260 107.843,328.376 111.608 C 333.493 115.373,337.767 118.366,337.873 118.260 C 337.980 118.153,336.522 113.308,334.634 107.492 C 332.745 101.676,331.205 96.576,331.212 96.159 C 331.220 95.638,334.102 93.287,340.412 88.653 C 345.465 84.942,349.600 81.747,349.600 81.553 C 349.600 81.357,344.395 81.200,337.900 81.199 L 326.200 81.198 324.203 74.899 C 320.080 61.893,318.954 58.627,318.726 59.008 M45.213 122.872 C 44.063 126.462,42.447 131.470,41.622 134.000 L 40.123 138.600 28.461 138.706 C 22.048 138.764,16.800 138.950,16.800 139.119 C 16.800 139.288,21.032 142.539,26.205 146.344 C 31.377 150.149,35.537 153.383,35.450 153.531 C 35.026 154.245,28.398 175.394,28.501 175.703 C 28.566 175.898,29.122 175.662,29.737 175.178 C 34.075 171.766,47.097 162.411,47.515 162.406 C 47.799 162.403,49.689 163.632,51.715 165.137 C 62.731 173.319,66.498 176.036,66.636 175.897 C 66.720 175.813,66.084 173.597,65.222 170.972 C 63.818 166.696,60.525 156.412,59.824 154.111 C 59.579 153.309,68.647 146.041,77.497 139.946 C 79.035 138.888,78.184 138.800,66.365 138.800 L 54.864 138.800 54.256 136.900 C 53.921 135.855,52.357 130.950,50.781 126.000 C 49.205 121.050,47.778 116.852,47.610 116.672 C 47.441 116.491,46.363 119.281,45.213 122.872 M352.271 116.700 C 352.174 116.865,350.803 121.050,349.224 126.000 C 347.645 130.950,346.079 135.855,345.744 136.900 L 345.136 138.800 333.635 138.800 C 321.816 138.800,320.965 138.888,322.503 139.946 C 331.353 146.041,340.421 153.309,340.176 154.111 C 339.863 155.137,337.035 164.010,334.794 170.995 C 333.948 173.632,333.313 175.846,333.383 175.916 C 333.453 175.986,337.667 172.973,342.748 169.222 C 352.852 161.760,352.342 162.026,354.138 163.284 C 355.852 164.484,367.367 172.968,369.593 174.671 C 370.579 175.425,371.438 175.886,371.502 175.695 C 371.603 175.392,364.967 154.235,364.550 153.531 C 364.463 153.383,368.623 150.149,373.795 146.344 C 378.968 142.539,383.200 139.288,383.200 139.119 C 383.200 138.950,377.952 138.764,371.539 138.706 L 359.877 138.600 358.378 134.000 C 357.553 131.470,355.941 126.475,354.796 122.900 C 352.720 116.418,352.604 116.133,352.271 116.700 M96.303 135.680 C 91.587 136.933,91.570 142.248,96.271 146.012 C 99.433 148.544,99.200 144.621,99.199 195.260 C 99.199 247.305,99.618 242.161,95.128 245.170 C 91.369 247.688,90.291 251.271,92.557 253.715 C 93.995 255.268,93.054 255.240,140.800 255.116 L 185.400 255.000 187.471 254.063 C 191.345 252.311,192.624 248.951,193.061 239.384 C 193.422 231.482,192.614 229.581,188.642 228.985 C 185.947 228.581,184.265 229.544,180.000 233.931 C 173.788 240.321,170.976 241.389,158.600 242.056 C 139.565 243.082,130.749 242.211,129.723 239.200 C 128.906 236.805,129.009 197.759,129.833 197.443 C 130.898 197.034,154.939 197.173,158.271 197.608 C 160.838 197.942,162.273 198.453,166.262 200.449 C 175.310 204.979,177.209 203.266,177.180 190.600 C 177.153 178.312,173.984 175.532,166.046 180.833 C 162.825 182.984,159.984 183.260,142.600 183.112 L 129.400 183.000 129.400 168.000 L 129.400 153.000 130.400 151.000 C 131.931 147.937,133.166 147.639,144.400 147.619 C 163.335 147.585,167.751 148.701,174.854 155.317 C 183.201 163.092,187.035 162.042,186.965 152.000 C 186.881 139.989,185.318 136.996,178.498 135.780 C 174.681 135.100,98.836 135.008,96.303 135.680 M208.514 135.774 C 202.259 137.289,202.314 143.603,208.612 147.207 C 212.082 149.192,211.800 145.060,211.800 194.000 L 211.800 237.800 210.946 239.646 C 210.477 240.661,209.412 242.011,208.580 242.646 C 201.676 247.911,201.088 253.154,207.214 254.804 C 210.786 255.766,281.578 255.114,286.312 254.076 C 303.206 250.371,312.192 241.574,314.280 226.697 C 316.523 210.714,306.093 194.925,291.082 191.581 C 288.032 190.902,287.995 190.705,290.637 189.214 C 300.525 183.633,306.081 175.678,307.231 165.450 C 309.139 148.501,299.295 138.163,279.002 135.804 C 272.027 134.993,211.841 134.967,208.514 135.774 M261.021 148.395 C 273.318 149.692,278.517 155.892,276.593 166.968 C 274.634 178.251,259.480 187.600,243.150 187.600 L 241.200 187.600 241.200 169.222 L 241.200 150.845 242.107 149.790 C 243.541 148.123,252.306 147.477,261.021 148.395 M38.200 187.521 C 37.320 190.311,35.688 195.385,34.574 198.797 L 32.547 205.000 20.819 205.200 L 9.090 205.400 18.021 212.000 C 22.933 215.630,27.194 218.783,27.492 219.006 C 27.938 219.342,27.860 219.935,27.048 222.406 C 23.511 233.157,20.838 241.771,20.990 241.923 C 21.088 242.021,25.253 239.092,30.246 235.414 C 40.991 227.500,39.868 228.045,42.042 229.685 C 49.519 235.326,58.874 242.059,59.026 241.907 C 59.193 241.740,57.024 234.720,53.370 223.600 C 52.258 220.218,52.092 219.322,52.514 219.000 C 52.802 218.780,57.080 215.630,62.019 212.000 L 71.000 205.400 59.289 205.294 C 47.590 205.188,47.577 205.187,47.208 204.294 C 47.006 203.802,45.385 198.813,43.606 193.207 C 41.828 187.600,40.244 182.886,40.087 182.731 C 39.929 182.575,39.080 184.731,38.200 187.521 M359.643 183.200 C 359.405 183.750,357.849 188.520,356.185 193.800 C 354.520 199.080,352.992 203.802,352.790 204.294 C 352.423 205.187,352.410 205.188,340.711 205.294 L 329.000 205.400 337.981 212.000 C 342.920 215.630,347.198 218.780,347.486 219.000 C 347.908 219.322,347.742 220.218,346.630 223.600 C 342.976 234.720,340.807 241.740,340.974 241.907 C 341.126 242.059,350.481 235.326,357.958 229.685 C 360.132 228.045,359.009 227.500,369.754 235.414 C 374.747 239.092,378.912 242.021,379.010 241.923 C 379.162 241.771,376.489 233.157,372.952 222.406 C 372.140 219.935,372.062 219.342,372.508 219.006 C 372.806 218.783,377.067 215.630,381.979 212.000 L 390.910 205.400 379.189 205.200 L 367.468 205.000 365.568 199.200 C 364.523 196.010,362.860 190.880,361.871 187.800 C 360.252 182.756,360.031 182.300,359.643 183.200 M267.200 199.806 C 279.678 202.914,286.350 213.883,283.216 226.138 C 280.335 237.401,268.939 243.178,250.484 242.730 C 240.503 242.487,241.200 244.133,241.200 220.811 L 241.200 202.475 243.100 202.246 C 244.145 202.121,246.080 201.911,247.400 201.781 C 250.034 201.521,257.733 200.193,261.200 199.400 C 262.410 199.124,263.670 198.956,264.000 199.028 C 264.330 199.099,265.770 199.449,267.200 199.806 M59.468 247.200 C 59.149 247.970,57.490 253.010,55.783 258.400 C 54.076 263.790,52.602 268.290,52.507 268.400 C 52.412 268.510,47.112 268.690,40.729 268.800 L 29.124 269.000 38.576 275.975 C 45.667 281.207,47.965 283.105,47.775 283.575 C 47.635 283.919,46.896 286.180,46.133 288.600 C 45.369 291.020,43.846 295.764,42.748 299.142 C 41.650 302.521,40.828 305.361,40.921 305.454 C 41.014 305.548,45.257 302.559,50.349 298.812 C 55.441 295.065,59.768 292.000,59.965 292.000 C 60.280 292.000,70.900 299.677,76.710 304.105 C 79.448 306.191,79.452 306.174,77.644 300.574 C 76.004 295.499,72.690 285.171,72.243 283.746 C 71.973 282.886,73.791 281.426,88.132 270.988 L 90.864 269.000 79.265 268.800 C 72.885 268.690,67.581 268.510,67.478 268.400 C 67.374 268.290,65.989 264.150,64.400 259.200 C 62.811 254.250,61.182 249.210,60.780 248.000 L 60.050 245.800 59.468 247.200 M339.148 248.108 C 336.984 255.052,332.681 268.231,332.522 268.400 C 332.419 268.510,327.115 268.690,320.735 268.800 L 309.136 269.000 311.868 270.988 C 326.209 281.426,328.027 282.886,327.757 283.746 C 327.310 285.171,323.996 295.499,322.356 300.574 C 320.548 306.174,320.552 306.191,323.290 304.105 C 329.100 299.677,339.720 292.000,340.035 292.000 C 340.232 292.000,344.559 295.065,349.651 298.812 C 354.743 302.559,358.986 305.548,359.079 305.454 C 359.172 305.361,358.350 302.521,357.252 299.142 C 356.154 295.764,354.631 291.020,353.867 288.600 C 353.104 286.180,352.365 283.919,352.225 283.575 C 352.035 283.105,354.333 281.207,361.424 275.975 L 370.876 269.000 359.271 268.800 C 352.888 268.690,347.588 268.510,347.493 268.400 C 347.398 268.290,345.814 263.456,343.973 257.658 C 340.054 245.314,340.032 245.270,339.148 248.108 M100.834 305.093 C 97.189 316.487,96.644 318.151,96.473 318.400 C 96.397 318.510,91.107 318.690,84.718 318.800 L 73.101 319.000 82.342 325.800 C 92.389 333.194,92.025 332.743,90.843 336.313 C 87.724 345.731,84.755 355.288,84.902 355.436 C 85.000 355.533,87.041 354.169,89.440 352.405 C 103.914 341.758,103.686 341.910,104.564 342.328 C 105.024 342.547,109.270 345.607,114.000 349.128 C 119.565 353.271,122.645 355.332,122.729 354.968 C 122.834 354.508,120.636 347.313,116.576 334.829 C 116.259 333.855,116.000 333.017,116.000 332.967 C 116.000 332.871,129.675 322.719,132.945 320.387 L 134.890 319.000 123.359 318.894 C 117.017 318.835,111.693 318.653,111.529 318.489 C 111.365 318.325,109.676 313.333,107.776 307.396 C 105.876 301.458,104.192 296.462,104.034 296.293 C 103.876 296.125,102.436 300.085,100.834 305.093 M295.924 296.210 C 295.795 296.424,294.133 301.458,292.229 307.396 C 290.326 313.333,288.635 318.325,288.471 318.489 C 288.307 318.653,282.983 318.835,276.641 318.894 L 265.110 319.000 267.055 320.387 C 270.325 322.719,284.000 332.871,284.000 332.967 C 284.000 333.017,283.741 333.855,283.424 334.829 C 279.364 347.313,277.166 354.508,277.271 354.968 C 277.355 355.332,280.435 353.271,286.000 349.128 C 290.730 345.607,294.976 342.547,295.436 342.328 C 296.314 341.910,296.086 341.758,310.560 352.405 C 312.959 354.169,315.000 355.533,315.098 355.436 C 315.245 355.288,312.276 345.731,309.157 336.313 C 307.975 332.743,307.611 333.194,317.658 325.800 L 326.899 319.000 315.282 318.800 C 308.893 318.690,303.594 318.510,303.508 318.400 C 303.421 318.290,302.641 315.950,301.775 313.201 C 298.063 301.420,296.143 295.845,295.924 296.210 M161.426 332.523 C 159.927 337.185,158.336 342.215,157.889 343.700 L 157.076 346.400 145.338 346.400 C 138.882 346.400,133.607 346.535,133.615 346.700 C 133.623 346.865,135.738 348.550,138.315 350.445 C 150.922 359.717,152.000 360.569,152.000 361.270 C 152.000 361.837,146.279 380.166,145.331 382.636 C 144.859 383.865,146.325 382.946,154.958 376.600 C 159.896 372.970,164.153 370.000,164.417 370.000 C 164.681 370.000,168.926 372.985,173.850 376.633 C 178.774 380.281,182.964 383.206,183.160 383.133 C 183.357 383.060,181.927 378.060,179.983 372.023 C 178.039 365.985,176.524 360.923,176.617 360.773 C 176.710 360.622,180.164 358.016,184.293 354.980 C 188.422 351.945,192.605 348.817,193.590 348.031 L 195.380 346.600 183.590 346.400 L 171.800 346.200 170.528 342.400 C 169.829 340.310,168.233 335.402,166.981 331.494 C 165.729 327.586,164.580 324.311,164.427 324.217 C 164.275 324.122,162.924 327.860,161.426 332.523 M235.474 324.280 C 235.317 324.534,234.188 327.860,232.965 331.671 C 231.742 335.482,230.169 340.310,229.471 342.400 L 228.200 346.200 216.410 346.400 L 204.620 346.600 206.410 348.031 C 207.395 348.817,211.578 351.945,215.707 354.980 C 219.836 358.016,223.290 360.622,223.383 360.773 C 223.476 360.923,221.961 365.985,220.017 372.023 C 218.073 378.060,216.643 383.060,216.840 383.133 C 217.036 383.206,221.226 380.281,226.150 376.633 C 231.074 372.985,235.319 370.000,235.583 370.000 C 235.847 370.000,240.104 372.970,245.042 376.600 C 253.675 382.946,255.141 383.865,254.669 382.636 C 253.721 380.166,248.000 361.837,248.000 361.270 C 248.000 360.569,249.078 359.717,261.685 350.445 C 264.262 348.550,266.377 346.865,266.385 346.700 C 266.393 346.535,261.116 346.400,254.658 346.400 L 242.917 346.400 242.052 343.500 C 239.437 334.736,235.722 323.879,235.474 324.280 " stroke="none" fill="#f9f905" fill-rule="evenodd"></path><path id="path1" d="M187.400 0.235 C 186.300 0.315,182.628 0.579,179.241 0.823 C 175.853 1.067,172.793 1.415,172.441 1.596 C 172.088 1.778,169.399 2.215,166.464 2.568 C 163.529 2.921,160.829 3.363,160.464 3.548 C 160.099 3.734,158.360 4.110,156.600 4.384 C 154.840 4.658,153.220 5.020,153.000 5.188 C 152.780 5.357,151.340 5.725,149.800 6.006 C 148.260 6.287,146.910 6.625,146.800 6.758 C 146.690 6.891,145.160 7.385,143.400 7.857 C 137.559 9.420,135.698 9.996,134.544 10.599 C 133.915 10.927,133.165 11.196,132.878 11.198 C 132.591 11.199,131.556 11.565,130.578 12.010 C 129.600 12.456,128.260 12.928,127.600 13.060 C 126.940 13.192,126.400 13.435,126.400 13.600 C 126.400 13.765,125.887 14.003,125.260 14.128 C 124.633 14.253,123.103 14.816,121.860 15.378 C 120.617 15.940,118.605 16.850,117.388 17.400 C 116.172 17.950,115.002 18.400,114.788 18.400 C 114.575 18.400,114.400 18.580,114.400 18.800 C 114.400 19.020,114.195 19.200,113.945 19.200 C 113.470 19.200,104.348 23.578,104.000 23.973 C 103.890 24.098,103.095 24.560,102.233 25.000 C 98.673 26.818,97.853 27.290,97.311 27.831 C 96.999 28.144,96.589 28.400,96.400 28.400 C 96.211 28.400,95.819 28.625,95.529 28.900 C 95.238 29.175,94.463 29.670,93.807 30.000 C 93.151 30.330,91.291 31.500,89.672 32.600 C 88.054 33.700,86.425 34.780,86.051 35.000 C 85.677 35.220,85.107 35.636,84.785 35.924 C 84.463 36.212,83.660 36.785,83.000 37.197 C 81.387 38.206,73.950 43.963,71.228 46.311 C 60.389 55.660,55.660 60.389,46.311 71.228 C 44.028 73.875,38.244 81.334,37.183 83.000 C 36.131 84.653,35.530 85.522,34.627 86.702 C 33.352 88.367,30.642 92.529,30.001 93.806 C 29.671 94.463,29.176 95.144,28.901 95.320 C 28.625 95.496,28.400 95.888,28.400 96.191 C 28.400 96.495,28.175 96.981,27.900 97.271 C 27.402 97.798,26.283 99.741,24.946 102.400 C 24.558 103.170,24.140 103.890,24.017 104.000 C 23.602 104.369,19.200 113.434,19.200 113.920 C 19.200 114.184,19.020 114.400,18.800 114.400 C 18.580 114.400,18.400 114.575,18.400 114.788 C 18.400 115.002,17.950 116.172,17.400 117.388 C 16.850 118.605,15.974 120.545,15.453 121.700 C 14.931 122.855,14.377 124.385,14.221 125.100 C 14.064 125.815,13.810 126.400,13.656 126.400 C 13.501 126.400,13.123 127.251,12.816 128.291 C 12.509 129.332,12.021 130.637,11.731 131.191 C 11.442 131.746,11.204 132.443,11.202 132.740 C 11.201 133.036,10.946 133.846,10.635 134.540 C 9.790 136.424,7.638 143.423,7.350 145.224 C 7.211 146.091,6.970 146.800,6.813 146.800 C 6.656 146.800,6.298 148.105,6.018 149.700 C 5.737 151.295,5.366 152.780,5.194 153.000 C 5.023 153.220,4.658 154.840,4.384 156.600 C 4.110 158.360,3.738 160.092,3.557 160.448 C 3.375 160.805,2.937 163.505,2.584 166.448 C 2.230 169.392,1.782 172.160,1.588 172.600 C -0.181 176.622,-0.191 225.941,1.577 227.200 C 1.731 227.310,2.084 229.470,2.362 232.000 C 2.639 234.530,3.041 237.320,3.255 238.200 C 3.469 239.080,3.982 241.330,4.396 243.200 C 6.251 251.591,6.504 252.623,6.797 253.000 C 6.968 253.220,7.230 254.030,7.379 254.800 C 7.740 256.660,9.951 263.872,10.647 265.460 C 10.951 266.154,11.200 266.929,11.200 267.182 C 11.200 267.436,11.565 268.444,12.010 269.422 C 12.456 270.400,12.928 271.740,13.060 272.400 C 13.192 273.060,13.429 273.600,13.587 273.600 C 13.744 273.600,14.100 274.365,14.378 275.300 C 14.857 276.916,15.221 277.795,17.445 282.712 C 17.970 283.873,18.400 284.998,18.400 285.212 C 18.400 285.425,18.580 285.600,18.800 285.600 C 19.020 285.600,19.200 285.794,19.200 286.031 C 19.200 286.508,21.994 292.482,22.366 292.800 C 22.495 292.910,23.290 294.350,24.133 296.000 C 25.853 299.363,28.511 303.949,29.168 304.683 C 29.406 304.949,29.600 305.280,29.600 305.418 C 29.600 305.693,35.587 314.875,35.978 315.200 C 36.110 315.310,36.560 315.935,36.977 316.590 C 37.394 317.244,37.889 317.964,38.076 318.190 C 38.264 318.415,39.770 320.400,41.423 322.600 C 44.137 326.210,45.299 327.615,50.000 332.967 C 52.128 335.390,52.320 335.595,56.448 339.841 C 60.422 343.930,64.208 347.572,67.013 350.002 C 67.901 350.771,69.701 352.338,71.013 353.485 C 72.326 354.632,75.200 356.923,77.400 358.577 C 79.600 360.230,81.585 361.736,81.810 361.924 C 82.036 362.111,82.756 362.606,83.410 363.023 C 84.065 363.440,84.690 363.885,84.800 364.011 C 85.288 364.572,94.381 370.400,94.768 370.400 C 95.006 370.400,95.200 370.547,95.200 370.726 C 95.200 370.905,95.785 371.351,96.500 371.717 C 97.215 372.083,98.520 372.819,99.400 373.353 C 100.280 373.887,102.350 375.015,104.000 375.862 C 105.650 376.708,107.090 377.505,107.200 377.634 C 107.518 378.006,113.492 380.800,113.969 380.800 C 114.206 380.800,114.400 380.980,114.400 381.200 C 114.400 381.420,114.608 381.600,114.861 381.600 C 115.115 381.600,116.240 382.029,117.361 382.554 C 121.042 384.277,122.977 385.092,124.600 385.602 C 125.480 385.878,126.380 386.237,126.600 386.400 C 126.820 386.563,127.692 386.919,128.539 387.192 C 129.385 387.464,130.555 387.937,131.139 388.241 C 131.722 388.546,132.470 388.797,132.800 388.800 C 133.130 388.803,133.869 389.050,134.442 389.349 C 135.015 389.648,136.455 390.121,137.642 390.400 C 138.829 390.679,140.250 391.124,140.800 391.388 C 141.350 391.652,142.880 392.098,144.200 392.379 C 145.520 392.659,146.780 393.026,147.000 393.192 C 147.220 393.359,148.660 393.731,150.200 394.019 C 151.740 394.306,153.180 394.669,153.400 394.824 C 153.620 394.980,155.150 395.323,156.800 395.586 C 158.450 395.850,160.091 396.217,160.446 396.402 C 160.802 396.588,163.592 397.042,166.646 397.412 C 169.701 397.782,172.560 398.238,173.000 398.424 C 177.172 400.194,224.695 400.176,227.000 398.404 C 227.220 398.234,228.750 397.972,230.400 397.820 C 232.050 397.668,234.660 397.300,236.200 397.003 C 237.740 396.707,240.530 396.178,242.400 395.828 C 244.270 395.478,246.160 395.027,246.600 394.825 C 247.040 394.623,248.615 394.231,250.100 393.955 C 251.585 393.679,252.800 393.339,252.800 393.200 C 252.800 393.061,254.015 392.710,255.500 392.420 C 256.985 392.130,258.650 391.673,259.200 391.405 C 259.750 391.137,261.098 390.697,262.195 390.429 C 263.292 390.160,264.372 389.800,264.595 389.628 C 264.818 389.456,265.898 389.096,266.995 388.828 C 268.092 388.560,269.172 388.198,269.395 388.023 C 269.618 387.847,270.520 387.477,271.400 387.200 C 272.280 386.923,273.180 386.559,273.400 386.393 C 273.620 386.226,274.835 385.767,276.100 385.372 C 277.365 384.977,278.400 384.507,278.400 384.327 C 278.400 384.147,278.665 384.000,278.990 384.000 C 279.314 384.000,280.759 383.460,282.200 382.800 C 283.641 382.140,284.996 381.600,285.210 381.600 C 285.425 381.600,285.600 381.420,285.600 381.200 C 285.600 380.980,285.794 380.800,286.031 380.800 C 286.508 380.800,292.482 378.006,292.800 377.634 C 292.910 377.505,294.350 376.708,296.000 375.862 C 297.650 375.015,299.720 373.887,300.600 373.353 C 301.480 372.819,302.785 372.083,303.500 371.717 C 304.215 371.351,304.800 370.905,304.800 370.726 C 304.800 370.547,304.994 370.400,305.232 370.400 C 305.619 370.400,314.712 364.572,315.200 364.011 C 315.310 363.885,315.935 363.440,316.590 363.023 C 317.244 362.606,317.964 362.112,318.190 361.926 C 318.415 361.741,320.310 360.306,322.400 358.737 C 324.490 357.169,326.493 355.596,326.851 355.243 C 327.209 354.889,327.929 354.256,328.451 353.836 C 335.122 348.464,344.671 339.131,351.000 331.796 C 352.320 330.266,353.814 328.561,354.321 328.007 C 355.510 326.706,361.991 318.293,362.890 316.882 C 363.862 315.356,364.483 314.460,365.373 313.298 C 366.646 311.635,369.358 307.472,370.000 306.194 C 370.330 305.537,370.825 304.762,371.100 304.471 C 371.375 304.181,371.600 303.789,371.600 303.600 C 371.600 303.411,371.825 303.019,372.100 302.729 C 372.598 302.202,373.717 300.259,375.054 297.600 C 375.442 296.830,375.868 296.110,376.002 296.000 C 376.136 295.890,376.495 295.170,376.800 294.400 C 377.105 293.630,377.470 292.910,377.611 292.800 C 377.987 292.506,380.800 286.537,380.800 286.031 C 380.800 285.794,380.980 285.600,381.200 285.600 C 381.420 285.600,381.600 285.425,381.600 285.212 C 381.600 284.998,382.071 283.783,382.646 282.512 C 383.221 281.240,384.097 279.300,384.593 278.200 C 385.089 277.100,385.623 275.615,385.779 274.900 C 385.936 274.185,386.207 273.600,386.382 273.600 C 386.557 273.600,386.808 273.060,386.940 272.400 C 387.072 271.740,387.523 270.435,387.942 269.500 C 388.362 268.565,388.827 267.350,388.977 266.800 C 389.128 266.250,389.406 265.440,389.597 265.000 C 390.231 263.538,392.333 256.566,392.621 254.971 C 392.777 254.107,393.044 253.220,393.215 253.000 C 393.385 252.780,393.748 251.430,394.020 250.000 C 394.292 248.570,394.650 247.220,394.816 247.000 C 394.982 246.780,395.342 245.160,395.616 243.400 C 395.890 241.640,396.262 239.908,396.443 239.552 C 396.625 239.195,397.063 236.495,397.416 233.552 C 397.770 230.608,398.218 227.840,398.412 227.400 C 400.174 223.394,400.193 174.098,398.433 172.800 C 398.284 172.690,397.860 170.080,397.491 167.000 C 397.121 163.920,396.637 160.860,396.414 160.200 C 396.192 159.540,395.752 157.740,395.437 156.200 C 394.409 151.175,393.603 147.815,393.229 147.000 C 393.027 146.560,392.755 145.660,392.623 145.000 C 392.285 143.299,390.018 136.043,389.355 134.540 C 389.050 133.846,388.800 133.071,388.800 132.818 C 388.800 132.564,388.435 131.556,387.990 130.578 C 387.544 129.600,387.072 128.260,386.940 127.600 C 386.808 126.940,386.557 126.400,386.382 126.400 C 386.207 126.400,385.936 125.815,385.779 125.100 C 385.623 124.385,385.069 122.855,384.547 121.700 C 384.026 120.545,383.150 118.605,382.600 117.388 C 382.050 116.172,381.600 115.002,381.600 114.788 C 381.600 114.575,381.420 114.400,381.200 114.400 C 380.980 114.400,380.800 114.206,380.800 113.969 C 380.800 113.463,377.987 107.494,377.611 107.200 C 377.470 107.090,377.105 106.370,376.800 105.600 C 376.495 104.830,376.136 104.110,376.002 104.000 C 375.868 103.890,375.443 103.170,375.058 102.400 C 374.673 101.630,373.929 100.280,373.406 99.400 C 372.883 98.520,372.148 97.260,371.772 96.600 C 371.396 95.940,370.978 95.310,370.844 95.200 C 370.709 95.090,370.329 94.461,369.999 93.802 C 369.516 92.834,367.057 89.144,364.001 84.800 C 363.769 84.470,363.269 83.713,362.890 83.118 C 361.956 81.653,355.468 73.208,354.321 71.963 C 353.814 71.414,352.881 70.342,352.246 69.582 C 346.470 62.661,336.814 53.016,330.400 47.760 C 329.630 47.129,328.910 46.492,328.800 46.345 C 328.586 46.059,324.600 42.856,322.397 41.200 C 321.665 40.650,320.075 39.435,318.863 38.500 C 317.652 37.565,316.524 36.800,316.359 36.800 C 316.193 36.800,315.819 36.573,315.529 36.295 C 315.238 36.017,314.550 35.485,314.000 35.112 C 313.450 34.739,311.731 33.571,310.181 32.517 C 308.630 31.463,306.830 30.330,306.181 30.000 C 305.531 29.670,304.762 29.175,304.471 28.900 C 304.181 28.625,303.789 28.400,303.600 28.400 C 303.411 28.400,303.019 28.168,302.729 27.885 C 302.438 27.601,301.570 27.050,300.800 26.660 C 298.517 25.503,296.214 24.216,296.000 23.977 C 295.890 23.855,295.170 23.505,294.400 23.200 C 293.630 22.895,292.910 22.530,292.800 22.389 C 292.506 22.013,286.537 19.200,286.031 19.200 C 285.794 19.200,285.600 19.020,285.600 18.800 C 285.600 18.580,285.425 18.400,285.212 18.400 C 284.998 18.400,283.828 17.950,282.612 17.400 C 281.395 16.850,279.455 15.974,278.300 15.453 C 277.145 14.931,275.615 14.377,274.900 14.221 C 274.185 14.064,273.600 13.793,273.600 13.618 C 273.600 13.443,273.060 13.192,272.400 13.060 C 271.740 12.928,270.435 12.477,269.500 12.058 C 268.565 11.638,267.350 11.173,266.800 11.023 C 266.250 10.872,265.440 10.594,265.000 10.403 C 263.414 9.715,256.318 7.596,254.776 7.350 C 253.909 7.211,253.200 6.970,253.200 6.813 C 253.200 6.656,251.900 6.296,250.311 6.012 C 248.722 5.728,247.147 5.340,246.811 5.150 C 246.475 4.960,244.670 4.522,242.800 4.177 C 240.930 3.832,238.140 3.302,236.600 3.000 C 235.060 2.698,232.405 2.326,230.700 2.174 C 228.995 2.021,227.600 1.771,227.600 1.618 C 227.600 0.765,195.410 -0.342,187.400 0.235 M200.952 7.700 C 201.293 8.635,202.846 13.450,204.405 18.400 C 205.963 23.350,207.384 27.670,207.562 28.000 C 207.835 28.505,209.745 28.632,219.643 28.800 L 231.400 29.000 226.600 32.570 C 223.960 34.533,219.730 37.665,217.200 39.530 C 214.670 41.394,212.540 42.968,212.466 43.028 C 212.353 43.118,215.388 52.872,218.424 62.178 C 220.122 67.382,221.310 67.904,206.200 56.807 C 202.901 54.383,200.110 52.400,200.000 52.400 C 199.890 52.400,197.099 54.383,193.800 56.807 C 178.690 67.904,179.878 67.382,181.576 62.178 C 184.612 52.872,187.647 43.118,187.534 43.028 C 187.460 42.968,185.330 41.394,182.800 39.530 C 180.270 37.665,176.040 34.533,173.400 32.570 L 168.600 29.000 180.357 28.800 C 190.255 28.632,192.165 28.505,192.438 28.000 C 192.616 27.670,194.037 23.350,195.595 18.400 C 198.994 7.606,199.564 6.000,200.000 6.000 C 200.184 6.000,200.612 6.765,200.952 7.700 M137.584 26.896 C 138.724 30.473,140.313 35.425,141.115 37.900 L 142.574 42.400 154.020 42.400 C 160.316 42.400,165.585 42.519,165.731 42.664 C 165.876 42.809,164.145 44.294,161.885 45.964 C 159.625 47.634,155.381 50.766,152.454 52.924 C 149.100 55.398,147.208 57.045,147.337 57.380 C 148.091 59.345,154.000 78.208,154.000 78.651 C 154.000 79.549,153.600 79.328,149.000 75.888 C 139.921 69.098,135.582 66.000,135.149 66.000 C 134.903 66.000,130.683 68.970,125.770 72.600 C 117.028 79.060,115.640 79.915,116.178 78.513 C 116.454 77.795,121.178 63.088,122.412 59.105 L 123.124 56.810 114.038 50.105 C 109.041 46.417,104.917 43.220,104.875 43.000 C 104.826 42.745,108.953 42.528,116.295 42.400 L 127.791 42.200 128.478 40.200 C 128.856 39.100,130.465 34.114,132.054 29.120 C 133.643 24.127,135.071 20.120,135.227 20.217 C 135.384 20.314,136.444 23.319,137.584 26.896 M271.466 40.000 L 272.200 42.200 283.701 42.400 C 291.045 42.528,295.174 42.745,295.125 43.000 C 295.083 43.220,290.959 46.417,285.962 50.105 L 276.876 56.810 277.588 59.105 C 278.822 63.088,283.546 77.795,283.822 78.513 C 284.360 79.915,282.972 79.060,274.230 72.600 C 269.317 68.970,265.097 66.000,264.851 66.000 C 264.418 66.000,260.079 69.098,251.000 75.888 C 246.400 79.328,246.000 79.549,246.000 78.651 C 246.000 78.208,251.909 59.345,252.663 57.380 C 252.792 57.045,250.900 55.398,247.546 52.924 C 244.619 50.766,240.375 47.634,238.115 45.964 C 235.855 44.294,234.124 42.809,234.269 42.664 C 234.415 42.519,239.692 42.400,245.998 42.400 L 257.462 42.400 259.595 35.700 C 263.760 22.617,264.363 20.783,264.663 20.299 C 264.839 20.014,266.176 23.583,267.849 28.804 C 269.434 33.752,271.062 38.790,271.466 40.000 M84.584 69.000 C 86.270 74.280,87.832 79.185,88.056 79.900 L 88.462 81.200 100.007 81.200 C 106.357 81.200,111.645 81.350,111.758 81.533 C 111.872 81.716,107.742 84.977,102.582 88.779 C 97.422 92.582,93.200 95.836,93.200 96.011 C 93.200 96.186,93.551 97.290,93.980 98.464 C 94.409 99.639,95.950 104.380,97.404 109.000 C 98.858 113.620,100.122 117.625,100.211 117.900 C 100.504 118.795,100.029 118.482,90.872 111.754 C 85.897 108.099,81.624 105.031,81.377 104.936 C 81.129 104.841,76.740 107.843,71.624 111.608 C 66.507 115.373,62.233 118.366,62.127 118.260 C 62.020 118.153,63.478 113.308,65.366 107.492 C 67.255 101.676,68.795 96.576,68.788 96.159 C 68.780 95.638,65.898 93.287,59.588 88.653 C 54.535 84.942,50.400 81.747,50.400 81.553 C 50.400 81.357,55.619 81.200,62.134 81.200 L 73.868 81.200 74.478 79.100 C 76.517 72.079,80.988 58.831,81.231 59.091 C 81.389 59.261,82.899 63.720,84.584 69.000 M324.203 74.899 L 326.200 81.198 337.900 81.199 C 344.395 81.200,349.600 81.357,349.600 81.553 C 349.600 81.747,345.465 84.942,340.412 88.653 C 334.102 93.287,331.220 95.638,331.212 96.159 C 331.205 96.576,332.745 101.676,334.634 107.492 C 336.522 113.308,337.980 118.153,337.873 118.260 C 337.767 118.366,333.493 115.373,328.376 111.608 C 323.260 107.843,318.871 104.841,318.623 104.936 C 318.376 105.031,314.103 108.099,309.128 111.754 C 299.971 118.482,299.496 118.795,299.789 117.900 C 299.878 117.625,301.142 113.620,302.596 109.000 C 304.050 104.380,305.591 99.639,306.020 98.464 C 306.449 97.290,306.800 96.186,306.800 96.011 C 306.800 95.836,302.578 92.582,297.418 88.779 C 292.258 84.977,288.128 81.716,288.242 81.533 C 288.355 81.350,293.643 81.200,299.993 81.200 L 311.538 81.200 311.944 79.900 C 314.128 72.913,318.541 59.317,318.726 59.008 C 318.954 58.627,320.080 61.893,324.203 74.899 M50.781 126.000 C 52.357 130.950,53.921 135.855,54.256 136.900 L 54.864 138.800 66.365 138.800 C 78.184 138.800,79.035 138.888,77.497 139.946 C 68.647 146.041,59.579 153.309,59.824 154.111 C 60.525 156.412,63.818 166.696,65.222 170.972 C 66.084 173.597,66.720 175.813,66.636 175.897 C 66.498 176.036,62.731 173.319,51.715 165.137 C 49.689 163.632,47.799 162.403,47.515 162.406 C 47.097 162.411,34.075 171.766,29.737 175.178 C 29.122 175.662,28.566 175.898,28.501 175.703 C 28.398 175.394,35.026 154.245,35.450 153.531 C 35.537 153.383,31.377 150.149,26.205 146.344 C 21.032 142.539,16.800 139.288,16.800 139.119 C 16.800 138.950,22.048 138.764,28.461 138.706 L 40.123 138.600 41.622 134.000 C 42.447 131.470,44.063 126.462,45.213 122.872 C 46.363 119.281,47.441 116.491,47.610 116.672 C 47.778 116.852,49.205 121.050,50.781 126.000 M354.796 122.900 C 355.941 126.475,357.553 131.470,358.378 134.000 L 359.877 138.600 371.539 138.706 C 377.952 138.764,383.200 138.950,383.200 139.119 C 383.200 139.288,378.968 142.539,373.795 146.344 C 368.623 150.149,364.463 153.383,364.550 153.531 C 364.967 154.235,371.603 175.392,371.502 175.695 C 371.438 175.886,370.579 175.425,369.593 174.671 C 367.367 172.968,355.852 164.484,354.138 163.284 C 352.342 162.026,352.852 161.760,342.748 169.222 C 337.667 172.973,333.453 175.986,333.383 175.916 C 333.313 175.846,333.948 173.632,334.794 170.995 C 337.035 164.010,339.863 155.137,340.176 154.111 C 340.421 153.309,331.353 146.041,322.503 139.946 C 320.965 138.888,321.816 138.800,333.635 138.800 L 345.136 138.800 345.744 136.900 C 346.079 135.855,347.645 130.950,349.224 126.000 C 352.038 117.179,352.310 116.400,352.581 116.400 C 352.654 116.400,353.651 119.325,354.796 122.900 M178.498 135.780 C 185.318 136.996,186.881 139.989,186.965 152.000 C 187.035 162.042,183.201 163.092,174.854 155.317 C 167.751 148.701,163.335 147.585,144.400 147.619 C 133.166 147.639,131.931 147.937,130.400 151.000 L 129.400 153.000 129.400 168.000 L 129.400 183.000 142.600 183.112 C 159.984 183.260,162.825 182.984,166.046 180.833 C 173.984 175.532,177.153 178.312,177.180 190.600 C 177.209 203.266,175.310 204.979,166.262 200.449 C 162.273 198.453,160.838 197.942,158.271 197.608 C 154.939 197.173,130.898 197.034,129.833 197.443 C 129.009 197.759,128.906 236.805,129.723 239.200 C 130.749 242.211,139.565 243.082,158.600 242.056 C 170.976 241.389,173.788 240.321,180.000 233.931 C 184.265 229.544,185.947 228.581,188.642 228.985 C 192.614 229.581,193.422 231.482,193.061 239.384 C 192.624 248.951,191.345 252.311,187.471 254.063 L 185.400 255.000 140.800 255.116 C 93.054 255.240,93.995 255.268,92.557 253.715 C 90.291 251.271,91.369 247.688,95.128 245.170 C 99.618 242.161,99.199 247.305,99.199 195.260 C 99.200 144.621,99.433 148.544,96.271 146.012 C 91.570 142.248,91.587 136.933,96.303 135.680 C 98.836 135.008,174.681 135.100,178.498 135.780 M279.002 135.804 C 299.295 138.163,309.139 148.501,307.231 165.450 C 306.081 175.678,300.525 183.633,290.637 189.214 C 287.995 190.705,288.032 190.902,291.082 191.581 C 306.093 194.925,316.523 210.714,314.280 226.697 C 312.192 241.574,303.206 250.371,286.312 254.076 C 281.578 255.114,210.786 255.766,207.214 254.804 C 201.088 253.154,201.676 247.911,208.580 242.646 C 209.412 242.011,210.477 240.661,210.946 239.646 L 211.800 237.800 211.800 194.000 C 211.800 145.060,212.082 149.192,208.612 147.207 C 202.314 143.603,202.259 137.289,208.514 135.774 C 211.841 134.967,272.027 134.993,279.002 135.804 M245.207 148.418 C 243.575 148.654,242.782 149.005,242.107 149.790 L 241.200 150.845 241.200 169.222 L 241.200 187.600 243.150 187.600 C 252.837 187.600,265.556 182.869,271.196 177.167 C 278.533 169.750,278.993 157.151,272.116 151.936 C 267.845 148.697,254.932 147.008,245.207 148.418 M43.606 193.207 C 45.385 198.813,47.006 203.802,47.208 204.294 C 47.577 205.187,47.590 205.188,59.289 205.294 L 71.000 205.400 62.019 212.000 C 57.080 215.630,52.802 218.780,52.514 219.000 C 52.092 219.322,52.258 220.218,53.370 223.600 C 57.024 234.720,59.193 241.740,59.026 241.907 C 58.874 242.059,49.519 235.326,42.042 229.685 C 39.868 228.045,40.991 227.500,30.246 235.414 C 25.253 239.092,21.088 242.021,20.990 241.923 C 20.838 241.771,23.511 233.157,27.048 222.406 C 27.860 219.935,27.938 219.342,27.492 219.006 C 27.194 218.783,22.933 215.630,18.021 212.000 L 9.090 205.400 20.819 205.200 L 32.547 205.000 34.574 198.797 C 35.688 195.385,37.320 190.311,38.200 187.521 C 39.080 184.731,39.929 182.575,40.087 182.731 C 40.244 182.886,41.828 187.600,43.606 193.207 M365.568 199.200 L 367.468 205.000 379.189 205.200 L 390.910 205.400 381.979 212.000 C 377.067 215.630,372.806 218.783,372.508 219.006 C 372.062 219.342,372.140 219.935,372.952 222.406 C 376.489 233.157,379.162 241.771,379.010 241.923 C 378.912 242.021,374.747 239.092,369.754 235.414 C 359.009 227.500,360.132 228.045,357.958 229.685 C 350.481 235.326,341.126 242.059,340.974 241.907 C 340.807 241.740,342.976 234.720,346.630 223.600 C 347.742 220.218,347.908 219.322,347.486 219.000 C 347.198 218.780,342.920 215.630,337.981 212.000 L 329.000 205.400 340.711 205.294 C 352.410 205.188,352.423 205.187,352.790 204.294 C 352.992 203.802,354.520 199.080,356.185 193.800 C 360.371 180.522,359.746 181.181,361.871 187.800 C 362.860 190.880,364.523 196.010,365.568 199.200 M261.200 199.400 C 257.733 200.193,250.034 201.521,247.400 201.781 C 246.080 201.911,244.145 202.121,243.100 202.246 L 241.200 202.475 241.200 220.811 C 241.200 244.133,240.503 242.487,250.484 242.730 C 271.674 243.244,284.034 235.095,283.993 220.636 C 283.960 209.111,277.299 201.912,264.000 199.028 C 263.670 198.956,262.410 199.124,261.200 199.400 M64.400 259.200 C 65.989 264.150,67.374 268.290,67.478 268.400 C 67.581 268.510,72.885 268.690,79.265 268.800 L 90.864 269.000 88.132 270.988 C 73.791 281.426,71.973 282.886,72.243 283.746 C 72.690 285.171,76.004 295.499,77.644 300.574 C 79.452 306.174,79.448 306.191,76.710 304.105 C 70.900 299.677,60.280 292.000,59.965 292.000 C 59.768 292.000,55.441 295.065,50.349 298.812 C 45.257 302.559,41.014 305.548,40.921 305.454 C 40.828 305.361,41.650 302.521,42.748 299.142 C 43.846 295.764,45.369 291.020,46.133 288.600 C 46.896 286.180,47.635 283.919,47.775 283.575 C 47.965 283.105,45.667 281.207,38.576 275.975 L 29.124 269.000 40.729 268.800 C 47.112 268.690,52.412 268.510,52.507 268.400 C 52.602 268.290,54.076 263.790,55.783 258.400 C 57.490 253.010,59.149 247.970,59.468 247.200 L 60.050 245.800 60.780 248.000 C 61.182 249.210,62.811 254.250,64.400 259.200 M343.973 257.658 C 345.814 263.456,347.398 268.290,347.493 268.400 C 347.588 268.510,352.888 268.690,359.271 268.800 L 370.876 269.000 361.424 275.975 C 354.333 281.207,352.035 283.105,352.225 283.575 C 352.365 283.919,353.104 286.180,353.867 288.600 C 354.631 291.020,356.154 295.764,357.252 299.142 C 358.350 302.521,359.172 305.361,359.079 305.454 C 358.986 305.548,354.743 302.559,349.651 298.812 C 344.559 295.065,340.232 292.000,340.035 292.000 C 339.720 292.000,329.100 299.677,323.290 304.105 C 320.552 306.191,320.548 306.174,322.356 300.574 C 323.996 295.499,327.310 285.171,327.757 283.746 C 328.027 282.886,326.209 281.426,311.868 270.988 L 309.136 269.000 320.735 268.800 C 327.115 268.690,332.419 268.510,332.522 268.400 C 332.681 268.231,336.984 255.052,339.148 248.108 C 340.032 245.270,340.054 245.314,343.973 257.658 M107.776 307.396 C 109.676 313.333,111.365 318.325,111.529 318.489 C 111.693 318.653,117.017 318.835,123.359 318.894 L 134.890 319.000 132.945 320.387 C 129.675 322.719,116.000 332.871,116.000 332.967 C 116.000 333.017,116.259 333.855,116.576 334.829 C 120.636 347.313,122.834 354.508,122.729 354.968 C 122.645 355.332,119.565 353.271,114.000 349.128 C 109.270 345.607,105.024 342.547,104.564 342.328 C 103.686 341.910,103.914 341.758,89.440 352.405 C 87.041 354.169,85.000 355.533,84.902 355.436 C 84.755 355.288,87.724 345.731,90.843 336.313 C 92.025 332.743,92.389 333.194,82.342 325.800 L 73.101 319.000 84.718 318.800 C 91.107 318.690,96.397 318.510,96.473 318.400 C 96.644 318.151,97.189 316.487,100.834 305.093 C 102.436 300.085,103.876 296.125,104.034 296.293 C 104.192 296.462,105.876 301.458,107.776 307.396 M301.775 313.201 C 302.641 315.950,303.421 318.290,303.508 318.400 C 303.594 318.510,308.893 318.690,315.282 318.800 L 326.899 319.000 317.658 325.800 C 307.611 333.194,307.975 332.743,309.157 336.313 C 312.276 345.731,315.245 355.288,315.098 355.436 C 315.000 355.533,312.959 354.169,310.560 352.405 C 296.086 341.758,296.314 341.910,295.436 342.328 C 294.976 342.547,290.730 345.607,286.000 349.128 C 280.435 353.271,277.355 355.332,277.271 354.968 C 277.166 354.508,279.364 347.313,283.424 334.829 C 283.741 333.855,284.000 333.017,284.000 332.967 C 284.000 332.871,270.325 322.719,267.055 320.387 L 265.110 319.000 276.641 318.894 C 282.983 318.835,288.307 318.653,288.471 318.489 C 288.635 318.325,290.326 313.333,292.229 307.396 C 294.133 301.458,295.795 296.424,295.924 296.210 C 296.143 295.845,298.063 301.420,301.775 313.201 M166.981 331.494 C 168.233 335.402,169.829 340.310,170.528 342.400 L 171.800 346.200 183.590 346.400 L 195.380 346.600 193.590 348.031 C 192.605 348.817,188.422 351.945,184.293 354.980 C 180.164 358.016,176.710 360.622,176.617 360.773 C 176.524 360.923,178.039 365.985,179.983 372.023 C 181.927 378.060,183.357 383.060,183.160 383.133 C 182.964 383.206,178.774 380.281,173.850 376.633 C 168.926 372.985,164.681 370.000,164.417 370.000 C 164.153 370.000,159.896 372.970,154.958 376.600 C 146.325 382.946,144.859 383.865,145.331 382.636 C 146.279 380.166,152.000 361.837,152.000 361.270 C 152.000 360.569,150.922 359.717,138.315 350.445 C 135.738 348.550,133.623 346.865,133.615 346.700 C 133.607 346.535,138.882 346.400,145.338 346.400 L 157.076 346.400 157.889 343.700 C 160.406 335.339,164.188 324.069,164.427 324.217 C 164.580 324.311,165.729 327.586,166.981 331.494 M242.052 343.500 L 242.917 346.400 254.658 346.400 C 261.116 346.400,266.393 346.535,266.385 346.700 C 266.377 346.865,264.262 348.550,261.685 350.445 C 249.078 359.717,248.000 360.569,248.000 361.270 C 248.000 361.837,253.721 380.166,254.669 382.636 C 255.141 383.865,253.675 382.946,245.042 376.600 C 240.104 372.970,235.847 370.000,235.583 370.000 C 235.319 370.000,231.074 372.985,226.150 376.633 C 221.226 380.281,217.036 383.206,216.840 383.133 C 216.643 383.060,218.073 378.060,220.017 372.023 C 221.961 365.985,223.476 360.923,223.383 360.773 C 223.290 360.622,219.836 358.016,215.707 354.980 C 211.578 351.945,207.395 348.817,206.410 348.031 L 204.620 346.600 216.410 346.400 L 228.200 346.200 229.471 342.400 C 230.169 340.310,231.742 335.482,232.965 331.671 C 234.188 327.860,235.317 324.534,235.474 324.280 C 235.722 323.879,239.437 334.736,242.052 343.500 " stroke="none" fill="#1c1cc3" fill-rule="evenodd"></path></g></svg>