<svg id="svg" version="1.1" width="400" height="68.72549019607844" viewBox="0 0 400 68.72549019607844" xmlns="http://www.w3.org/2000/svg" xmlns:xlink="http://www.w3.org/1999/xlink"><g id="svgg"><path id="path0" d="M149.583 10.579 C 145.334 11.238,141.443 12.974,138.417 15.559 C 130.279 22.512,127.924 33.449,132.519 42.950 C 133.080 44.109,134.354 46.222,134.660 46.500 C 134.711 46.546,134.949 46.846,135.189 47.167 C 135.838 48.032,137.821 50.034,138.583 50.594 C 138.950 50.863,139.396 51.215,139.575 51.377 C 140.414 52.134,143.295 53.631,145.583 54.499 C 154.641 57.934,166.313 54.028,171.764 45.738 C 180.054 33.133,174.689 16.961,160.417 11.529 C 157.738 10.510,152.813 10.078,149.583 10.579 M153.490 12.452 L 153.843 13.653 155.198 13.702 L 156.553 13.750 155.526 14.469 C 154.363 15.284,154.377 15.238,154.852 16.644 C 155.305 17.986,155.222 18.031,153.989 17.115 L 152.966 16.354 151.950 17.094 C 150.651 18.039,150.634 18.033,151.027 16.792 C 151.209 16.219,151.391 15.637,151.432 15.500 C 151.481 15.338,151.133 14.985,150.446 14.500 L 149.385 13.750 150.730 13.667 L 152.074 13.583 152.476 12.280 C 152.934 10.792,153.004 10.803,153.490 12.452 M146.131 14.000 L 146.459 15.083 147.828 15.167 L 149.196 15.250 148.116 16.042 L 147.036 16.833 147.422 18.083 C 147.870 19.534,147.850 19.549,146.667 18.667 C 145.576 17.853,145.680 17.853,144.532 18.675 C 143.431 19.463,143.379 19.412,143.829 17.987 L 144.167 16.917 143.778 16.583 C 143.564 16.400,143.095 16.010,142.736 15.717 L 142.083 15.184 143.426 15.175 L 144.770 15.167 145.150 13.899 C 145.580 12.468,145.670 12.477,146.131 14.000 M160.728 13.787 C 161.118 15.159,161.101 15.145,162.586 15.201 L 163.912 15.250 162.806 16.038 L 161.700 16.826 162.105 18.103 C 162.601 19.663,162.629 19.636,161.428 18.738 C 160.231 17.842,160.320 17.844,159.211 18.682 C 158.100 19.521,158.056 19.482,158.497 18.058 L 158.850 16.917 158.453 16.583 C 158.234 16.400,157.762 16.010,157.403 15.717 L 156.750 15.184 158.099 15.175 L 159.449 15.167 159.814 13.911 C 160.232 12.470,160.348 12.455,160.728 13.787 M35.000 19.167 L 35.000 23.167 24.917 23.167 L 14.833 23.167 14.833 25.667 L 14.833 28.167 15.250 28.167 L 15.667 28.167 15.667 26.168 L 15.667 24.169 25.625 24.126 L 35.583 24.083 35.628 19.625 C 35.671 15.251,35.666 15.167,35.336 15.167 C 35.008 15.167,35.000 15.267,35.000 19.167 M54.000 26.742 C 54.000 34.716,54.059 38.592,54.188 39.200 C 54.415 40.263,55.085 41.833,55.311 41.833 C 55.401 41.833,55.367 41.619,55.236 41.356 C 54.619 40.118,54.506 37.803,54.503 26.292 C 54.500 16.515,54.470 15.167,54.250 15.167 C 54.030 15.167,54.000 16.564,54.000 26.742 M78.500 26.471 C 78.500 39.409,78.414 40.649,77.309 43.667 C 76.002 47.238,73.544 49.721,69.959 51.093 C 63.964 53.388,52.681 53.015,47.471 50.351 C 46.228 49.715,46.054 49.596,44.766 48.506 L 44.083 47.929 44.583 48.491 C 45.470 49.488,45.645 49.649,46.478 50.234 C 49.558 52.400,54.187 53.500,60.214 53.500 C 72.431 53.500,78.094 49.392,78.997 39.875 C 79.354 36.101,79.216 15.167,78.833 15.167 C 78.503 15.167,78.500 15.278,78.500 26.471 M252.593 15.542 C 252.657 15.748,252.841 16.179,253.002 16.500 C 253.163 16.821,253.797 18.283,254.412 19.750 C 255.525 22.407,257.035 25.974,261.469 36.417 C 262.753 39.442,264.080 42.592,264.417 43.417 C 264.755 44.242,265.171 45.217,265.343 45.583 C 265.832 46.627,267.805 51.388,267.864 51.667 C 267.910 51.884,267.074 51.927,261.380 52.000 L 254.844 52.083 255.052 52.500 L 255.260 52.917 261.922 52.917 L 268.583 52.917 268.538 52.511 C 268.514 52.289,268.349 51.801,268.172 51.428 C 267.995 51.055,267.319 49.475,266.668 47.917 C 266.017 46.358,265.271 44.596,265.010 44.000 C 264.749 43.404,264.109 41.904,263.589 40.667 C 262.695 38.539,262.333 37.685,262.000 36.917 C 261.920 36.733,261.397 35.496,260.836 34.167 C 260.276 32.837,259.749 31.600,259.666 31.417 C 259.582 31.233,259.331 30.633,259.107 30.083 C 258.884 29.533,258.350 28.258,257.920 27.250 C 257.491 26.242,256.878 24.779,256.559 24.000 C 256.240 23.221,255.759 22.114,255.490 21.541 C 255.220 20.968,255.000 20.453,255.000 20.396 C 255.000 20.339,254.732 19.683,254.405 18.938 C 254.078 18.193,253.744 17.433,253.664 17.250 C 253.584 17.067,253.355 16.523,253.155 16.042 C 252.801 15.187,252.363 14.798,252.593 15.542 M306.333 19.143 L 306.333 23.119 304.292 25.075 C 303.169 26.150,300.221 29.030,297.742 31.473 C 295.262 33.917,291.562 37.548,289.519 39.542 L 285.804 43.167 286.617 43.167 L 287.430 43.167 289.780 40.875 C 291.073 39.615,294.696 36.071,297.830 33.000 C 300.965 29.929,304.310 26.657,305.265 25.729 L 307.000 24.041 307.000 19.604 C 307.000 15.278,306.992 15.167,306.667 15.167 C 306.343 15.167,306.333 15.278,306.333 19.143 M339.763 15.792 C 339.910 16.135,340.072 16.529,340.123 16.667 C 340.224 16.942,343.108 23.772,344.238 26.417 C 344.997 28.192,345.542 29.477,347.168 33.333 C 347.728 34.662,348.400 36.237,348.659 36.833 C 349.432 38.605,350.947 42.188,351.301 43.083 C 351.483 43.542,352.023 44.817,352.502 45.917 C 353.361 47.892,355.000 51.846,355.000 51.945 C 355.000 51.973,352.040 52.016,348.422 52.040 L 341.844 52.083 342.052 52.500 L 342.260 52.917 348.828 52.960 C 352.495 52.985,355.461 52.939,355.544 52.856 C 355.677 52.723,354.844 50.479,353.864 48.331 C 353.677 47.920,353.101 46.571,352.584 45.333 C 352.066 44.096,351.536 42.840,351.405 42.542 C 350.917 41.432,350.674 40.863,349.751 38.667 C 349.231 37.429,348.217 35.029,347.498 33.333 C 346.779 31.637,345.655 28.975,345.000 27.417 C 344.345 25.858,343.703 24.340,343.572 24.042 C 343.062 22.882,342.831 22.340,341.923 20.167 C 341.406 18.929,340.771 17.429,340.512 16.833 C 340.253 16.237,339.996 15.619,339.942 15.458 C 339.888 15.298,339.765 15.167,339.670 15.167 C 339.565 15.167,339.602 15.417,339.763 15.792 M166.855 18.250 L 167.218 19.500 168.526 19.500 C 170.096 19.500,170.122 19.582,168.833 20.487 C 167.720 21.267,167.740 21.167,168.350 22.958 C 168.696 23.972,168.670 23.994,167.857 23.359 C 166.383 22.207,166.486 22.219,165.316 23.070 C 164.049 23.992,164.070 24.008,164.585 22.496 C 164.814 21.821,164.945 21.219,164.876 21.158 C 164.807 21.098,164.300 20.718,163.750 20.316 L 162.750 19.583 164.153 19.500 L 165.557 19.417 165.959 18.208 C 166.451 16.730,166.413 16.728,166.855 18.250 M139.977 18.333 L 140.353 19.500 141.676 19.500 C 143.258 19.500,143.273 19.545,141.995 20.472 C 140.872 21.288,140.879 21.264,141.333 22.583 C 141.799 23.937,141.794 23.941,140.572 23.069 L 139.477 22.288 138.947 22.673 C 138.655 22.886,138.173 23.242,137.875 23.466 C 137.241 23.943,137.224 23.871,137.667 22.583 C 138.121 21.264,138.128 21.288,137.005 20.472 C 135.727 19.545,135.742 19.500,137.324 19.500 L 138.647 19.500 139.023 18.333 C 139.230 17.692,139.444 17.167,139.500 17.167 C 139.556 17.167,139.770 17.692,139.977 18.333 M218.090 19.917 C 220.136 25.114,218.659 30.216,214.538 32.184 C 213.148 32.847,213.111 32.920,214.020 33.192 C 215.355 33.592,217.740 31.815,218.806 29.625 C 220.107 26.955,219.820 22.076,218.238 19.957 C 217.999 19.637,217.978 19.631,218.090 19.917 M394.999 20.130 C 395.881 21.947,396.209 25.548,395.686 27.667 C 395.015 30.386,393.024 32.470,390.016 33.603 L 388.615 34.131 389.166 34.416 C 390.943 35.335,394.837 32.634,396.011 29.667 C 396.656 28.036,396.847 24.185,396.354 22.750 C 396.011 21.749,395.398 20.459,395.089 20.083 C 394.821 19.757,394.819 19.758,394.999 20.130 M120.167 20.214 C 120.167 20.240,120.335 20.709,120.542 21.256 C 121.205 23.015,121.102 27.152,120.351 28.894 C 119.398 31.106,116.198 33.820,114.525 33.836 C 113.884 33.842,113.771 34.126,114.301 34.400 C 115.819 35.185,119.493 32.991,120.709 30.574 C 122.153 27.704,122.125 23.750,120.640 20.792 C 120.378 20.269,120.167 20.011,120.167 20.214 M196.833 25.833 C 196.833 28.556,196.846 28.667,197.167 28.667 C 197.485 28.667,197.500 28.556,197.500 26.233 L 197.500 23.800 200.958 23.870 C 203.122 23.914,204.597 24.016,204.898 24.142 C 205.553 24.415,205.628 24.269,205.090 23.770 C 204.433 23.162,203.343 23.000,199.908 23.000 L 196.833 23.000 196.833 25.833 M98.000 26.321 C 98.000 29.389,98.012 29.500,98.333 29.500 C 98.653 29.500,98.667 29.389,98.667 26.733 L 98.667 23.966 102.708 24.033 C 105.992 24.088,106.867 24.152,107.375 24.375 C 108.397 24.824,108.043 24.140,106.943 23.538 C 106.492 23.291,105.812 23.242,102.208 23.196 L 98.000 23.141 98.000 26.321 M272.197 23.625 L 272.250 24.083 280.917 24.128 C 289.877 24.175,290.047 24.164,290.468 23.490 C 290.666 23.171,290.532 23.167,281.407 23.167 L 272.145 23.167 272.197 23.625 M372.833 26.321 C 372.833 29.389,372.845 29.500,373.167 29.500 C 373.487 29.500,373.500 29.389,373.500 26.735 L 373.500 23.970 377.542 24.038 C 380.758 24.093,381.728 24.163,382.292 24.379 C 383.413 24.811,383.089 24.233,381.833 23.562 C 381.317 23.286,380.769 23.244,377.042 23.196 L 372.833 23.141 372.833 26.321 M137.852 26.000 C 139.424 26.000,139.439 26.046,138.162 26.972 C 137.019 27.802,137.069 27.656,137.496 28.932 C 137.960 30.319,137.934 30.449,137.292 29.966 C 136.994 29.742,136.511 29.385,136.218 29.172 L 135.687 28.786 134.647 29.558 C 133.384 30.497,133.396 30.506,133.884 28.969 L 134.279 27.725 133.230 26.988 C 131.890 26.046,131.902 26.000,133.486 26.000 L 134.806 26.000 135.175 24.875 C 135.699 23.280,135.697 23.281,136.138 24.708 L 136.537 26.000 137.852 26.000 M172.367 26.000 C 173.923 26.000,173.937 26.047,172.662 26.972 C 171.519 27.802,171.568 27.660,172.000 28.917 C 172.493 30.350,172.443 30.424,171.458 29.703 C 170.977 29.350,170.487 29.005,170.370 28.935 C 170.238 28.856,169.770 29.096,169.133 29.569 C 167.885 30.496,167.896 30.505,168.387 28.961 L 168.784 27.710 167.684 26.897 L 166.583 26.083 167.994 26.000 L 169.404 25.917 169.704 24.917 C 170.182 23.326,170.179 23.326,170.639 24.708 L 171.068 26.000 172.367 26.000 M151.093 25.903 C 151.627 26.294,151.570 28.395,151.022 28.472 C 150.757 28.510,150.454 28.359,150.095 28.011 C 149.402 27.339,148.750 27.167,146.909 27.167 C 144.988 27.167,145.000 27.153,145.000 29.283 L 145.000 31.000 146.903 31.000 C 148.393 31.000,148.914 30.938,149.303 30.715 C 150.105 30.255,150.359 30.599,150.298 32.066 C 150.243 33.409,150.066 33.561,149.090 33.098 C 148.690 32.908,148.033 32.833,146.762 32.833 L 144.991 32.833 145.037 35.208 L 145.083 37.583 147.207 37.630 C 149.502 37.680,150.081 37.533,150.706 36.737 C 151.490 35.741,152.167 36.107,152.167 37.528 C 152.167 38.354,152.100 38.582,151.758 38.924 L 151.348 39.333 146.271 39.333 C 143.479 39.333,141.075 39.288,140.930 39.232 C 140.519 39.074,140.611 38.378,141.083 38.068 L 141.500 37.795 141.500 32.507 C 141.500 27.430,141.487 27.206,141.167 26.917 C 140.842 26.623,140.721 26.001,140.944 25.778 C 141.187 25.535,150.751 25.653,151.093 25.903 M162.928 25.919 C 165.471 26.701,165.969 29.581,163.867 31.346 L 163.194 31.911 163.965 32.330 C 166.670 33.801,166.628 37.427,163.892 38.771 L 162.917 39.250 158.330 39.305 C 153.920 39.358,153.731 39.347,153.441 39.027 C 153.095 38.645,153.263 38.139,153.837 37.831 C 154.155 37.661,154.167 37.464,154.167 32.476 L 154.167 27.298 153.750 26.970 C 153.300 26.616,153.215 26.185,153.533 25.867 C 153.854 25.546,161.859 25.591,162.928 25.919 M244.461 28.375 C 244.127 29.315,243.472 31.133,243.005 32.417 C 240.707 38.724,240.853 38.167,241.500 38.167 C 241.775 38.167,242.000 38.140,242.000 38.107 C 242.000 38.015,244.308 31.597,245.238 29.101 C 245.615 28.091,245.643 27.876,245.473 27.310 C 245.200 26.399,245.138 26.465,244.461 28.375 M331.928 27.250 C 331.770 27.617,331.315 28.817,330.918 29.917 C 329.345 34.274,328.850 35.630,328.434 36.728 C 327.896 38.148,327.896 38.167,328.467 38.167 C 328.881 38.167,328.969 38.066,329.239 37.292 C 329.407 36.810,329.639 36.192,329.754 35.917 C 329.869 35.642,330.392 34.217,330.915 32.750 C 331.439 31.283,331.919 29.971,331.983 29.833 C 332.540 28.631,332.700 27.739,332.460 27.167 L 332.216 26.583 331.928 27.250 M157.875 27.267 C 157.725 27.335,157.667 27.936,157.667 29.431 L 157.667 31.500 158.229 31.500 C 160.802 31.500,162.648 28.872,160.960 27.612 C 160.523 27.286,158.367 27.045,157.875 27.267 M34.128 33.125 L 34.083 37.083 24.458 37.126 L 14.833 37.169 14.833 40.075 C 14.833 42.958,14.891 43.262,15.402 43.066 C 15.627 42.980,15.667 42.605,15.667 40.567 L 15.667 38.169 25.208 38.126 L 34.750 38.083 34.794 33.625 C 34.838 29.264,34.831 29.167,34.506 29.167 C 34.183 29.167,34.171 29.294,34.128 33.125 M137.047 33.509 L 138.417 33.518 137.764 34.050 C 137.405 34.344,136.929 34.736,136.706 34.922 L 136.302 35.260 136.670 36.472 C 137.125 37.973,137.129 37.970,135.928 37.071 C 135.386 36.665,134.893 36.333,134.833 36.333 C 134.774 36.333,134.281 36.665,133.739 37.071 C 132.538 37.969,132.548 37.976,133.024 36.496 L 133.410 35.299 132.983 34.941 C 132.748 34.744,132.262 34.344,131.903 34.050 L 131.250 33.518 132.611 33.509 L 133.973 33.500 134.342 32.375 C 134.545 31.756,134.753 31.178,134.803 31.091 C 134.854 31.003,135.071 31.509,135.286 32.216 L 135.677 33.500 137.047 33.509 M173.201 33.500 C 174.756 33.500,174.770 33.547,173.495 34.472 C 172.353 35.302,172.401 35.160,172.833 36.417 C 173.335 37.874,173.274 37.936,172.179 37.093 C 170.985 36.174,171.200 36.174,169.905 37.098 C 169.316 37.519,168.834 37.837,168.836 37.806 C 168.837 37.775,169.016 37.177,169.234 36.477 L 169.629 35.204 168.524 34.393 L 167.419 33.583 168.829 33.500 L 170.238 33.417 170.610 32.250 C 170.815 31.608,170.994 31.046,171.007 31.000 C 171.019 30.954,171.226 31.498,171.465 32.208 L 171.901 33.500 173.201 33.500 M159.417 33.083 C 159.325 33.115,158.894 33.188,158.458 33.247 L 157.667 33.354 157.667 35.507 L 157.667 37.660 158.099 37.769 C 158.780 37.940,160.440 37.704,161.165 37.334 C 163.541 36.122,161.936 32.221,159.417 33.083 M196.833 40.000 C 196.833 43.222,196.844 43.333,197.167 43.333 C 197.487 43.333,197.500 43.222,197.500 40.392 L 197.500 37.451 201.042 37.541 C 204.103 37.619,204.708 37.679,205.500 37.982 C 206.610 38.407,206.551 38.406,206.334 38.001 C 205.834 37.068,203.863 36.667,199.778 36.667 L 196.833 36.667 196.833 40.000 M219.597 37.708 C 221.712 44.325,218.639 49.599,211.667 51.316 C 209.548 51.838,208.622 51.876,196.532 51.949 L 184.147 52.023 184.198 52.470 L 184.250 52.917 194.917 52.961 C 211.552 53.031,214.991 52.483,218.268 49.238 C 220.900 46.632,221.745 41.445,220.074 38.148 C 219.642 37.297,219.392 37.066,219.597 37.708 M97.960 44.772 L 97.917 51.917 91.614 51.960 L 85.312 52.004 85.364 52.460 L 85.417 52.917 92.000 52.917 L 98.583 52.917 98.627 45.792 L 98.670 38.667 101.107 38.667 C 103.573 38.667,104.645 38.836,105.240 39.320 C 105.504 39.535,105.491 39.480,105.172 39.021 C 104.484 38.031,103.622 37.780,100.627 37.698 L 98.004 37.627 97.960 44.772 M372.833 44.833 L 372.833 52.000 366.583 52.000 L 360.333 52.000 360.333 52.502 L 360.333 53.004 366.875 52.960 L 373.417 52.917 373.460 45.792 L 373.504 38.667 376.043 38.672 C 378.033 38.676,378.769 38.742,379.440 38.974 C 380.183 39.230,380.275 39.235,380.132 39.010 C 379.540 38.072,378.006 37.667,375.048 37.667 L 372.833 37.667 372.833 44.833 M137.559 39.433 L 137.946 40.583 139.348 40.667 L 140.750 40.750 139.750 41.482 C 139.200 41.885,138.693 42.264,138.624 42.325 C 138.555 42.386,138.686 42.988,138.915 43.663 C 139.429 45.173,139.441 45.163,138.237 44.254 C 137.030 43.343,137.178 43.343,136.000 44.250 C 135.464 44.663,134.990 45.000,134.947 45.000 C 134.905 45.000,135.046 44.426,135.263 43.725 C 135.720 42.244,135.766 42.390,134.588 41.579 C 133.384 40.750,133.420 40.667,134.971 40.667 L 136.275 40.667 136.666 39.418 C 136.882 38.731,137.083 38.195,137.115 38.226 C 137.146 38.257,137.346 38.800,137.559 39.433 M169.267 39.470 L 169.618 40.583 171.017 40.667 L 172.417 40.750 171.316 41.563 L 170.216 42.377 170.605 43.636 C 171.082 45.184,171.111 45.160,169.867 44.236 C 169.230 43.762,168.762 43.522,168.630 43.601 C 168.513 43.671,168.026 44.014,167.549 44.364 C 166.431 45.183,166.451 45.201,166.927 43.804 C 167.443 42.287,167.494 42.478,166.338 41.639 C 165.062 40.713,165.077 40.667,166.637 40.667 L 167.941 40.667 168.333 39.418 C 168.784 37.981,168.799 37.982,169.267 39.470 M118.867 38.917 C 118.899 39.008,119.054 39.346,119.210 39.667 C 119.367 39.987,120.408 42.387,121.523 45.000 C 124.362 51.651,124.325 51.561,124.329 51.790 C 124.332 51.950,122.820 52.006,117.589 52.040 L 110.844 52.083 111.052 52.500 L 111.260 52.917 117.975 52.960 C 121.668 52.984,124.789 52.947,124.911 52.877 C 125.120 52.757,124.527 51.164,122.970 47.667 C 122.463 46.526,122.418 46.422,121.334 43.860 C 120.353 41.541,119.375 39.511,118.994 39.000 C 118.892 38.862,118.834 38.825,118.867 38.917 M394.031 39.422 C 394.099 39.646,396.111 44.388,396.504 45.250 C 396.671 45.617,397.010 46.404,397.257 47.000 C 397.503 47.596,397.841 48.383,398.008 48.750 C 398.774 50.439,399.298 51.813,399.209 51.902 C 399.155 51.956,396.084 52.000,392.385 52.000 L 385.658 52.000 385.917 52.500 L 386.175 53.000 392.994 53.000 C 397.004 53.000,399.853 52.936,399.909 52.845 C 400.009 52.683,399.659 51.710,398.946 50.167 C 398.713 49.663,398.064 48.163,397.503 46.833 C 395.843 42.900,394.469 39.853,394.216 39.541 C 394.086 39.381,394.003 39.327,394.031 39.422 M142.688 45.542 L 142.896 46.333 144.198 46.333 C 145.747 46.333,145.782 46.417,144.579 47.246 C 143.474 48.007,143.457 48.031,143.651 48.541 C 143.735 48.763,143.920 49.334,144.061 49.811 C 144.349 50.778,144.381 50.779,143.049 49.802 C 141.989 49.026,142.125 49.018,140.930 49.921 C 139.726 50.830,139.738 50.840,140.250 49.332 C 140.479 48.659,140.667 48.088,140.667 48.063 C 140.667 48.037,140.162 47.657,139.544 47.217 L 138.422 46.417 139.836 46.368 L 141.250 46.319 141.648 45.035 L 142.046 43.750 142.263 44.250 C 142.382 44.525,142.573 45.106,142.688 45.542 M164.324 45.202 L 164.689 46.320 166.053 46.368 L 167.417 46.417 166.319 47.252 L 165.221 48.088 165.612 49.248 C 166.120 50.755,166.095 50.780,164.929 49.907 C 163.735 49.011,163.932 49.011,162.739 49.904 C 161.540 50.801,161.558 50.816,162.006 49.312 L 162.370 48.091 161.810 47.618 C 161.502 47.358,161.044 47.021,160.792 46.870 C 160.071 46.437,160.237 46.333,161.653 46.333 L 162.973 46.333 163.346 45.076 C 163.769 43.651,163.820 43.658,164.324 45.202 M35.795 47.947 L 35.750 51.917 19.031 51.959 L 2.311 52.002 2.364 52.459 L 2.417 52.917 19.417 52.917 L 36.417 52.917 36.417 48.502 C 36.417 44.448,36.393 44.083,36.128 44.032 C 35.862 43.981,35.836 44.285,35.795 47.947 M306.667 47.988 L 306.667 52.000 288.822 52.000 L 270.978 52.000 271.031 52.458 L 271.083 52.917 289.167 52.917 L 307.250 52.917 307.250 48.502 C 307.250 44.431,307.227 44.084,306.958 44.032 C 306.687 43.979,306.667 44.256,306.667 47.988 M237.684 46.875 C 237.606 47.081,237.202 48.188,236.785 49.333 C 236.369 50.479,235.976 51.548,235.913 51.708 C 235.806 51.979,235.346 52.000,229.571 52.000 C 222.965 52.000,222.598 52.047,223.085 52.837 C 223.247 53.099,236.278 53.055,236.448 52.792 C 236.523 52.677,237.006 51.458,237.524 50.083 L 238.464 47.583 245.649 47.540 C 249.600 47.516,252.833 47.465,252.833 47.426 C 252.833 47.387,252.760 47.163,252.671 46.928 L 252.508 46.500 245.167 46.500 L 237.825 46.500 237.684 46.875 M324.753 46.708 C 324.691 46.894,324.207 48.235,323.203 51.000 L 322.871 51.917 316.538 51.960 L 310.205 52.004 310.110 52.364 C 309.947 52.990,310.054 53.000,316.739 53.000 C 324.154 53.000,323.512 53.129,324.037 51.531 C 324.208 51.010,324.613 49.890,324.937 49.042 L 325.526 47.500 332.680 47.500 C 336.614 47.500,339.833 47.467,339.833 47.428 C 339.833 47.388,339.760 47.163,339.671 46.928 L 339.508 46.500 332.166 46.500 C 326.440 46.500,324.807 46.546,324.753 46.708 M149.520 48.702 L 149.727 49.488 151.127 49.536 L 152.528 49.583 151.431 50.388 C 150.827 50.831,150.333 51.212,150.333 51.234 C 150.333 51.257,150.521 51.826,150.750 52.499 C 151.262 54.006,151.274 53.996,150.070 53.087 C 149.527 52.677,149.008 52.342,148.917 52.342 C 148.825 52.342,148.306 52.677,147.763 53.087 C 146.559 53.996,146.571 54.006,147.084 52.499 C 147.313 51.826,147.500 51.257,147.500 51.234 C 147.500 51.212,147.006 50.831,146.403 50.388 L 145.305 49.583 146.694 49.535 L 148.083 49.486 148.481 48.201 L 148.879 46.917 149.096 47.417 C 149.215 47.692,149.406 48.270,149.520 48.702 M157.491 48.368 L 157.856 49.487 159.220 49.535 L 160.583 49.583 159.546 50.333 C 158.384 51.174,158.367 51.228,158.836 52.591 C 159.287 53.901,159.240 53.931,158.096 53.074 C 156.899 52.176,157.085 52.175,155.852 53.083 C 154.721 53.916,154.676 53.865,155.193 52.334 L 155.552 51.270 154.984 50.791 C 154.672 50.527,154.210 50.188,153.958 50.037 C 153.239 49.605,153.403 49.500,154.804 49.500 L 156.108 49.500 156.501 48.247 C 156.947 46.825,156.988 46.830,157.491 48.368 " stroke="none" fill="#15158b" fill-rule="evenodd"></path><path id="path1" d="M1.500 33.167 L 1.500 52.000 18.490 52.000 C 27.835 52.000,35.515 51.944,35.558 51.875 C 35.600 51.806,35.658 49.800,35.687 47.417 L 35.738 43.083 25.286 43.083 L 14.833 43.083 14.833 40.042 L 14.833 37.000 24.487 37.000 L 34.141 37.000 34.198 32.708 C 34.229 30.348,34.209 28.357,34.154 28.285 C 34.099 28.213,29.729 28.175,24.443 28.202 L 14.833 28.250 14.833 25.708 L 14.833 23.167 24.833 23.167 L 34.833 23.167 34.833 19.523 C 34.833 17.519,34.881 15.532,34.939 15.107 L 35.045 14.333 18.273 14.333 L 1.500 14.333 1.500 33.167 M40.511 25.458 C 40.524 39.536,40.739 42.127,42.134 44.999 C 44.864 50.623,51.858 53.094,62.917 52.343 C 70.192 51.849,74.322 49.671,76.544 45.159 C 78.292 41.609,78.488 39.582,78.495 25.042 L 78.500 14.333 71.833 14.333 L 65.167 14.333 65.164 25.542 C 65.160 41.320,64.988 42.202,61.768 43.013 C 59.893 43.485,55.667 42.878,55.667 42.137 C 55.667 42.062,55.560 42.000,55.429 42.000 C 55.045 42.000,54.330 40.311,54.065 38.780 C 53.862 37.604,53.829 35.383,53.868 25.847 L 53.917 14.333 47.208 14.333 L 40.500 14.333 40.511 25.458 M84.744 14.542 C 84.700 14.656,84.683 23.112,84.707 33.333 L 84.750 51.917 91.250 51.917 L 97.750 51.917 97.793 44.778 L 97.837 37.639 100.710 37.700 C 104.441 37.778,104.876 37.978,105.730 40.000 C 105.865 40.321,106.131 40.935,106.321 41.366 C 106.511 41.796,106.667 42.201,106.667 42.265 C 106.667 42.380,107.708 45.111,107.996 45.750 C 108.078 45.933,108.196 46.271,108.258 46.500 C 108.320 46.729,108.474 47.142,108.600 47.417 C 108.726 47.692,109.161 48.817,109.567 49.917 L 110.306 51.917 117.184 51.960 C 120.968 51.984,124.119 51.947,124.187 51.877 C 124.299 51.762,123.072 48.662,122.088 46.579 C 121.871 46.118,121.470 45.180,121.198 44.495 C 120.925 43.810,120.512 42.837,120.278 42.333 C 120.045 41.829,119.667 40.967,119.439 40.417 C 118.658 38.531,117.850 37.176,116.934 36.213 C 116.033 35.268,115.653 35.017,114.183 34.401 L 113.450 34.093 114.381 33.817 C 120.048 32.135,122.422 26.634,120.166 20.417 C 119.035 17.302,115.047 15.141,109.250 14.501 C 106.907 14.243,84.843 14.279,84.744 14.542 M183.333 33.159 L 183.333 52.000 194.847 52.000 C 206.790 52.000,208.398 51.927,211.583 51.237 C 216.525 50.167,219.181 47.679,219.931 43.418 C 220.866 38.107,218.567 34.176,213.941 33.179 C 212.877 32.949,212.882 32.885,214.000 32.407 C 218.174 30.621,219.940 25.925,218.319 20.917 C 218.112 20.275,217.925 19.660,217.903 19.549 C 217.859 19.317,216.465 17.500,216.331 17.500 C 216.281 17.500,215.984 17.266,215.671 16.979 C 215.103 16.461,213.238 15.500,212.798 15.500 C 212.671 15.500,212.495 15.432,212.408 15.348 C 211.583 14.559,209.319 14.423,196.042 14.369 L 183.333 14.318 183.333 33.159 M238.056 14.540 C 237.971 14.655,237.648 15.387,237.338 16.167 C 236.845 17.405,236.339 18.611,235.833 19.750 C 235.751 19.933,235.523 20.458,235.325 20.917 C 235.127 21.375,234.864 21.975,234.741 22.250 C 234.618 22.525,234.243 23.425,233.907 24.250 C 233.572 25.075,233.155 26.065,232.982 26.449 C 232.809 26.834,232.667 27.185,232.667 27.229 C 232.667 27.274,232.451 27.784,232.186 28.363 C 231.581 29.690,230.501 32.234,229.580 34.500 C 229.189 35.462,228.749 36.475,228.602 36.750 C 228.455 37.025,228.335 37.314,228.334 37.391 C 228.334 37.469,228.227 37.769,228.097 38.058 C 227.967 38.347,227.629 39.095,227.347 39.720 C 227.064 40.345,226.833 40.898,226.833 40.949 C 226.833 41.045,225.435 44.332,224.331 46.833 C 223.987 47.612,223.459 48.887,223.158 49.667 C 222.856 50.446,222.548 51.155,222.472 51.242 C 221.813 51.996,221.913 52.007,229.039 51.960 L 235.744 51.917 236.394 50.167 C 236.751 49.204,237.202 47.985,237.396 47.458 L 237.748 46.500 245.200 46.500 L 252.652 46.500 252.754 47.125 C 252.811 47.469,252.919 47.900,252.994 48.083 C 253.070 48.267,253.418 49.224,253.768 50.210 L 254.404 52.004 261.077 51.960 L 267.750 51.917 267.703 51.500 C 267.661 51.125,267.497 50.709,266.750 49.083 C 266.322 48.152,264.167 43.022,264.167 42.935 C 264.167 42.887,263.947 42.376,263.679 41.799 C 263.411 41.222,262.689 39.550,262.075 38.083 C 261.460 36.617,260.793 35.042,260.592 34.583 C 260.390 34.125,260.127 33.487,260.005 33.167 C 259.884 32.846,259.533 32.033,259.226 31.360 C 258.918 30.687,258.667 30.101,258.667 30.058 C 258.667 29.958,256.399 24.593,256.071 23.917 C 255.562 22.866,252.937 16.533,252.583 15.500 L 252.211 14.417 245.211 14.373 C 239.731 14.339,238.177 14.375,238.056 14.540 M271.500 18.792 L 271.500 23.250 281.208 23.209 L 290.917 23.168 290.383 23.626 C 289.583 24.312,283.195 30.499,278.077 35.546 C 275.588 38.001,272.790 40.728,271.859 41.607 L 270.167 43.206 270.167 47.603 L 270.167 52.000 288.333 52.000 L 306.500 52.000 306.500 48.357 C 306.500 46.353,306.548 44.360,306.608 43.929 L 306.715 43.144 296.200 43.197 L 285.685 43.250 292.384 36.676 C 296.069 33.061,300.673 28.523,302.616 26.593 L 306.149 23.083 306.199 18.708 L 306.250 14.333 288.875 14.333 L 271.500 14.333 271.500 18.792 M325.013 14.708 C 324.933 14.915,324.629 15.608,324.337 16.250 C 323.403 18.305,323.333 18.465,323.333 18.576 C 323.333 18.670,323.076 19.291,322.500 20.583 C 321.955 21.807,321.667 22.493,321.667 22.567 C 321.667 22.613,321.446 23.124,321.176 23.701 C 320.906 24.278,320.490 25.238,320.252 25.833 C 320.014 26.429,319.751 27.067,319.668 27.250 C 319.586 27.433,319.360 27.958,319.167 28.417 C 318.973 28.875,318.748 29.400,318.665 29.583 C 318.582 29.767,318.320 30.404,318.081 31.000 C 317.843 31.596,317.427 32.555,317.157 33.132 C 316.887 33.710,316.667 34.220,316.667 34.267 C 316.667 34.340,316.378 35.026,315.833 36.250 C 315.266 37.524,315.000 38.162,315.000 38.250 C 315.000 38.338,314.734 38.976,314.167 40.250 C 314.008 40.606,313.500 41.776,312.972 43.000 C 312.794 43.413,312.581 43.900,312.498 44.083 C 312.416 44.267,312.154 44.904,311.917 45.500 C 311.679 46.096,311.418 46.733,311.335 46.917 C 311.252 47.100,311.025 47.625,310.830 48.083 C 310.635 48.542,310.369 49.153,310.238 49.442 C 310.107 49.731,310.000 50.016,310.000 50.076 C 310.000 50.136,309.847 50.521,309.660 50.931 C 309.153 52.043,308.895 52.000,316.073 52.000 C 323.060 52.000,322.831 52.027,323.079 51.167 C 323.146 50.938,323.547 49.794,323.972 48.625 L 324.744 46.500 332.192 46.500 L 339.640 46.500 339.748 47.042 C 339.884 47.719,340.730 50.231,341.163 51.241 L 341.488 52.000 348.179 52.000 L 354.869 52.000 354.765 51.583 C 354.675 51.225,353.614 48.648,352.912 47.083 C 352.788 46.808,352.490 46.096,352.248 45.500 C 352.006 44.904,351.670 44.117,351.502 43.750 C 351.333 43.383,350.731 41.958,350.162 40.583 C 349.594 39.208,348.942 37.671,348.713 37.167 C 348.483 36.662,348.050 35.650,347.749 34.917 C 347.028 33.161,345.884 30.439,345.472 29.500 C 345.291 29.087,345.030 28.488,344.893 28.167 C 344.756 27.846,344.577 27.433,344.496 27.250 C 344.414 27.067,344.050 26.204,343.687 25.333 C 342.495 22.476,340.149 16.930,339.844 16.250 C 339.680 15.883,339.495 15.302,339.432 14.958 L 339.318 14.333 332.238 14.333 L 325.158 14.333 325.013 14.708 M359.500 33.167 L 359.500 52.000 366.083 52.000 L 372.667 52.000 372.667 44.833 L 372.667 37.667 375.208 37.668 C 378.325 37.669,379.656 38.025,380.189 39.000 C 380.415 39.415,380.944 40.681,381.407 41.917 C 381.648 42.558,381.917 43.214,382.006 43.373 C 382.094 43.532,382.167 43.742,382.167 43.840 C 382.167 43.938,382.307 44.333,382.479 44.717 C 382.651 45.102,383.036 46.092,383.333 46.917 C 383.631 47.742,384.015 48.731,384.187 49.116 C 384.359 49.500,384.500 49.932,384.500 50.074 C 384.500 50.217,384.561 50.333,384.635 50.333 C 384.709 50.333,384.866 50.708,384.984 51.167 L 385.197 52.000 392.089 52.000 C 396.200 52.000,399.019 51.937,399.077 51.844 C 399.162 51.706,398.152 49.025,397.849 48.583 C 397.786 48.492,397.559 47.967,397.344 47.417 C 397.130 46.867,396.739 45.943,396.477 45.363 C 396.215 44.784,396.000 44.273,396.000 44.228 C 396.000 43.962,393.190 37.960,392.784 37.359 C 392.191 36.481,390.913 35.214,390.481 35.077 C 390.308 35.022,390.167 34.908,390.167 34.822 C 390.167 34.737,390.028 34.667,389.859 34.667 C 389.560 34.667,388.500 34.207,388.500 34.078 C 388.500 34.042,388.819 33.929,389.208 33.826 C 391.396 33.247,393.974 31.356,394.809 29.717 C 396.128 27.124,396.167 22.238,394.884 20.194 C 394.750 19.980,394.679 19.765,394.727 19.718 C 394.979 19.466,392.375 16.989,391.321 16.479 C 389.747 15.716,389.208 15.500,388.883 15.500 C 388.709 15.500,388.495 15.433,388.408 15.352 C 388.200 15.157,385.967 14.720,384.083 14.506 C 383.205 14.407,377.799 14.336,371.042 14.335 L 359.500 14.333 359.500 33.167 M204.167 23.169 C 206.200 23.903,206.369 27.277,204.417 28.166 C 203.728 28.480,197.237 28.945,196.792 28.712 C 196.723 28.676,196.667 27.330,196.667 25.719 L 196.667 22.792 200.125 22.875 C 202.286 22.927,203.802 23.037,204.167 23.169 M106.748 23.394 C 108.059 23.964,108.377 24.570,108.356 26.464 C 108.329 28.831,106.683 29.499,100.875 29.500 L 97.833 29.500 97.833 26.231 L 97.833 22.963 101.958 23.034 C 105.396 23.093,106.194 23.153,106.748 23.394 M381.784 23.482 C 382.893 23.975,383.196 24.449,383.296 25.851 C 383.505 28.768,382.004 29.500,375.819 29.500 L 372.667 29.500 372.667 26.233 L 372.667 22.966 376.792 23.032 C 380.665 23.093,380.970 23.120,381.784 23.482 M245.654 27.794 C 245.661 28.001,245.738 28.301,245.826 28.461 C 245.914 28.620,246.184 29.350,246.426 30.083 C 246.818 31.271,247.633 33.506,248.007 34.417 C 248.082 34.600,248.229 35.050,248.333 35.417 C 248.438 35.783,248.590 36.233,248.671 36.417 C 249.015 37.194,249.335 38.054,249.294 38.094 C 249.072 38.311,240.826 38.218,240.894 38.000 C 240.937 37.862,241.232 37.037,241.550 36.167 C 242.955 32.316,243.687 30.304,244.248 28.750 C 244.579 27.833,244.931 26.896,245.030 26.667 L 245.209 26.250 245.425 26.833 C 245.544 27.154,245.647 27.586,245.654 27.794 M332.578 27.333 C 332.720 28.048,333.434 30.227,333.760 30.942 C 333.892 31.231,334.000 31.524,334.000 31.593 C 334.000 31.662,334.442 32.925,334.982 34.401 C 335.521 35.876,336.040 37.320,336.134 37.610 L 336.306 38.137 332.111 38.198 C 329.804 38.231,327.896 38.248,327.870 38.235 C 327.823 38.212,328.431 36.436,329.007 34.917 C 329.180 34.458,329.898 32.508,330.601 30.583 C 331.304 28.658,331.949 26.896,332.035 26.667 C 332.218 26.176,332.389 26.387,332.578 27.333 M205.250 37.167 C 206.309 37.696,206.666 38.359,206.666 39.797 C 206.667 42.396,205.581 43.112,201.417 43.258 C 200.133 43.303,198.540 43.370,197.875 43.407 L 196.667 43.474 196.667 40.059 L 196.667 36.645 200.542 36.697 C 204.289 36.748,204.444 36.764,205.250 37.167 " stroke="none" fill="#fbfbfb" fill-rule="evenodd"></path><path id="path2" d="M152.500 12.418 L 152.108 13.667 150.773 13.667 L 149.437 13.667 150.469 14.433 C 151.632 15.297,151.621 15.263,151.167 16.583 C 150.718 17.888,150.736 17.937,151.458 17.373 C 152.957 16.202,152.893 16.213,153.876 16.949 C 154.357 17.310,154.840 17.658,154.950 17.724 C 155.067 17.793,154.980 17.344,154.742 16.642 C 154.517 15.982,154.333 15.391,154.333 15.328 C 154.333 15.266,154.802 14.885,155.375 14.482 L 156.417 13.750 155.098 13.667 L 153.779 13.583 153.392 12.433 C 153.179 11.800,152.979 11.257,152.948 11.226 C 152.917 11.195,152.715 11.731,152.500 12.418 M145.190 14.000 L 144.814 15.167 143.574 15.167 C 142.083 15.167,142.070 15.218,143.326 16.130 L 144.310 16.844 143.905 18.035 C 143.682 18.689,143.500 19.252,143.500 19.284 C 143.500 19.317,143.894 19.055,144.375 18.703 C 144.856 18.350,145.344 18.006,145.458 17.938 C 145.585 17.862,146.058 18.115,146.667 18.583 C 147.786 19.445,147.798 19.435,147.333 18.083 C 146.888 16.790,146.866 16.854,148.044 16.000 L 149.077 15.250 147.736 15.202 L 146.395 15.154 146.021 13.994 C 145.569 12.589,145.644 12.589,145.190 14.000 M159.857 14.000 L 159.481 15.167 158.240 15.167 C 156.750 15.167,156.736 15.218,157.993 16.130 L 158.976 16.844 158.572 18.035 C 158.349 18.689,158.167 19.252,158.167 19.284 C 158.167 19.317,158.560 19.055,159.042 18.703 C 159.523 18.350,160.009 18.007,160.122 17.940 C 160.243 17.868,160.709 18.100,161.260 18.507 C 162.386 19.339,162.425 19.317,162.000 18.085 C 161.555 16.790,161.533 16.854,162.710 16.000 L 163.744 15.250 162.403 15.202 L 161.062 15.154 160.688 13.994 C 160.235 12.589,160.311 12.589,159.857 14.000 M165.986 18.333 L 165.583 19.583 164.283 19.632 L 162.983 19.681 163.991 20.423 C 164.546 20.832,164.999 21.222,164.999 21.291 C 164.998 21.360,164.849 21.904,164.667 22.500 C 164.485 23.096,164.335 23.606,164.335 23.633 C 164.334 23.661,164.803 23.348,165.378 22.938 L 166.422 22.193 167.406 22.929 C 168.604 23.826,168.594 23.834,168.098 22.375 L 167.696 21.194 168.723 20.472 L 169.750 19.750 168.490 19.702 L 167.230 19.654 166.809 18.369 L 166.388 17.083 165.986 18.333 M139.104 18.292 C 138.718 19.647,138.721 19.645,137.348 19.700 L 136.123 19.750 137.066 20.399 C 138.261 21.220,138.221 21.124,137.831 22.257 C 137.332 23.708,137.393 23.768,138.500 22.917 L 139.500 22.147 140.500 22.917 C 141.607 23.768,141.668 23.708,141.169 22.257 C 140.779 21.124,140.739 21.220,141.934 20.399 L 142.877 19.750 141.612 19.701 L 140.348 19.653 139.975 18.493 C 139.522 17.087,139.452 17.071,139.104 18.292 M135.300 24.851 L 134.890 26.083 133.590 26.132 L 132.291 26.181 133.312 26.940 C 133.874 27.358,134.333 27.722,134.333 27.749 C 134.333 27.776,134.178 28.301,133.988 28.915 C 133.560 30.304,133.547 30.296,134.733 29.409 L 135.713 28.675 136.315 29.146 C 136.646 29.404,137.121 29.747,137.371 29.907 L 137.825 30.199 137.412 28.987 C 137.186 28.320,137.000 27.764,137.000 27.750 C 137.000 27.736,137.459 27.393,138.019 26.987 L 139.038 26.250 137.774 26.201 L 136.510 26.153 136.110 24.886 L 135.711 23.618 135.300 24.851 M169.800 24.851 L 169.390 26.083 168.088 26.132 L 166.787 26.182 167.810 26.926 C 168.981 27.778,168.937 27.648,168.497 28.924 C 168.047 30.233,168.094 30.264,169.226 29.415 L 170.203 28.683 171.060 29.311 C 171.531 29.656,172.005 29.991,172.113 30.055 C 172.231 30.125,172.156 29.676,171.927 28.932 L 171.544 27.692 172.541 26.971 L 173.538 26.250 172.274 26.201 L 171.010 26.153 170.610 24.886 L 170.211 23.618 169.800 24.851 M141.125 25.841 C 140.733 26.077,140.756 26.613,141.167 26.833 C 141.489 27.006,141.500 27.182,141.500 32.392 L 141.500 37.773 141.073 38.145 C 140.046 39.038,140.257 39.079,146.092 39.127 C 152.100 39.177,151.936 39.208,152.103 37.970 C 152.330 36.292,151.718 35.832,150.681 36.901 C 149.984 37.621,149.151 37.834,147.051 37.831 C 144.806 37.827,144.917 37.967,144.917 35.131 L 144.917 32.750 146.636 32.702 C 148.132 32.661,148.452 32.702,149.088 33.020 C 150.100 33.526,150.333 33.314,150.333 31.891 C 150.333 30.612,150.161 30.483,149.008 30.897 C 148.425 31.107,147.801 31.167,146.570 31.131 L 144.917 31.083 144.924 29.292 C 144.933 27.073,144.926 27.082,146.800 27.087 C 148.755 27.093,149.326 27.236,150.124 27.919 C 150.928 28.607,151.289 28.652,151.432 28.081 C 151.585 27.472,151.360 26.230,151.050 25.972 C 150.706 25.686,141.584 25.566,141.125 25.841 M153.792 25.838 C 153.374 26.094,153.432 26.649,153.917 27.030 L 154.333 27.358 154.333 32.340 L 154.333 37.322 153.820 37.906 C 152.802 39.066,152.843 39.078,157.993 39.128 C 161.830 39.165,162.694 39.129,163.371 38.904 C 166.573 37.841,166.737 33.554,163.625 32.256 C 162.862 31.938,162.863 31.945,163.585 31.499 C 165.816 30.120,165.477 26.929,163.000 25.998 C 162.236 25.711,154.225 25.571,153.792 25.838 M161.265 27.718 C 162.534 29.194,161.008 31.235,158.375 31.583 L 157.500 31.698 157.500 29.696 C 157.500 26.974,157.392 27.124,159.288 27.193 C 160.774 27.247,160.885 27.276,161.265 27.718 M170.642 32.333 L 170.224 33.583 168.987 33.667 L 167.750 33.750 168.702 34.417 C 169.792 35.180,169.776 35.130,169.333 36.417 C 168.872 37.758,168.876 37.761,170.023 36.926 L 171.045 36.182 172.106 36.939 C 172.689 37.355,173.167 37.665,173.167 37.627 C 173.167 37.589,172.986 37.028,172.766 36.380 L 172.365 35.201 173.368 34.476 L 174.371 33.750 173.134 33.702 L 171.897 33.654 171.478 32.369 L 171.059 31.083 170.642 32.333 M134.382 32.458 L 134.047 33.583 132.750 33.632 L 131.454 33.682 132.477 34.426 C 133.040 34.835,133.499 35.188,133.498 35.210 C 133.497 35.232,133.347 35.725,133.165 36.307 C 132.705 37.773,132.712 37.779,133.830 36.919 L 134.827 36.152 135.705 36.795 C 136.188 37.149,136.673 37.492,136.783 37.557 C 136.900 37.627,136.814 37.178,136.575 36.475 C 136.350 35.815,136.167 35.258,136.167 35.237 C 136.167 35.216,136.631 34.855,137.198 34.433 L 138.229 33.667 136.958 33.667 L 135.686 33.667 135.310 32.500 C 134.847 31.062,134.798 31.060,134.382 32.458 M161.441 33.354 C 162.923 34.254,162.774 36.463,161.168 37.404 C 160.354 37.880,158.031 37.995,157.723 37.574 C 157.418 37.157,157.405 33.351,157.708 33.261 C 159.189 32.825,160.628 32.861,161.441 33.354 M136.668 39.578 L 136.279 40.820 135.037 40.868 L 133.795 40.917 134.798 41.642 L 135.802 42.368 135.401 43.546 C 134.906 45.001,134.896 44.993,136.097 44.092 C 136.926 43.470,137.129 43.384,137.370 43.551 C 137.528 43.660,137.997 43.998,138.412 44.302 C 139.272 44.931,139.288 44.904,138.833 43.583 C 138.400 42.323,138.359 42.450,139.447 41.630 L 140.395 40.917 139.156 40.833 L 137.917 40.750 137.549 39.605 C 137.347 38.975,137.154 38.432,137.120 38.398 C 137.086 38.364,136.883 38.895,136.668 39.578 M168.366 39.581 L 168.002 40.819 166.732 40.868 L 165.462 40.917 166.459 41.638 L 167.456 42.359 167.073 43.599 C 166.844 44.343,166.769 44.791,166.887 44.721 C 166.995 44.657,167.469 44.323,167.940 43.977 L 168.797 43.350 169.774 44.082 C 170.906 44.931,170.953 44.899,170.503 43.591 C 170.063 42.314,170.019 42.445,171.190 41.593 L 172.213 40.848 170.913 40.799 L 169.613 40.750 169.226 39.600 C 169.012 38.967,168.814 38.425,168.784 38.396 C 168.755 38.366,168.567 38.899,168.366 39.581 M141.654 45.188 L 141.250 46.417 140.000 46.500 L 138.750 46.583 139.706 47.250 C 140.800 48.012,140.768 47.908,140.337 49.325 C 139.935 50.649,139.889 50.623,141.068 49.741 L 142.050 49.006 143.108 49.762 C 143.690 50.177,144.166 50.494,144.165 50.467 C 144.163 50.439,144.013 49.941,143.831 49.360 C 143.391 47.955,143.374 48.012,144.440 47.250 L 145.372 46.583 144.144 46.500 L 142.917 46.417 142.488 45.188 L 142.059 43.959 141.654 45.188 M163.357 45.333 L 162.981 46.500 161.709 46.500 L 160.437 46.500 161.469 47.266 C 162.036 47.688,162.500 48.050,162.500 48.071 C 162.500 48.091,162.314 48.654,162.088 49.320 L 161.675 50.533 162.129 50.241 C 162.379 50.080,162.863 49.730,163.206 49.463 L 163.828 48.976 164.831 49.748 C 165.941 50.602,166.002 50.542,165.500 49.083 C 165.317 48.550,165.167 48.090,165.167 48.059 C 165.167 48.029,165.627 47.669,166.190 47.259 L 167.213 46.515 165.904 46.466 L 164.595 46.417 164.273 45.292 C 163.874 43.892,163.820 43.894,163.357 45.333 M148.490 48.346 L 148.083 49.583 146.856 49.667 L 145.628 49.750 146.560 50.417 C 147.625 51.178,147.608 51.122,147.173 52.520 C 146.771 53.814,146.723 53.789,147.905 52.904 C 148.448 52.499,148.903 52.167,148.917 52.167 C 148.931 52.167,149.386 52.499,149.928 52.904 C 151.113 53.791,151.084 53.806,150.668 52.505 C 150.224 51.116,150.206 51.180,151.273 50.417 L 152.205 49.750 150.978 49.667 L 149.750 49.583 149.409 48.583 C 149.221 48.033,149.029 47.477,148.982 47.346 C 148.936 47.216,148.714 47.666,148.490 48.346 M156.538 48.427 L 156.158 49.667 154.881 49.667 L 153.604 49.667 154.644 50.440 C 155.400 51.002,155.656 51.286,155.578 51.481 C 155.519 51.629,155.336 52.181,155.170 52.707 C 154.839 53.759,154.823 53.758,156.115 52.789 L 156.981 52.141 157.911 52.844 C 159.043 53.698,159.074 53.677,158.663 52.325 C 158.483 51.734,158.335 51.231,158.335 51.208 C 158.334 51.185,158.787 50.832,159.342 50.423 L 160.351 49.681 159.059 49.632 L 157.767 49.583 157.452 48.500 C 157.021 47.016,156.970 47.012,156.538 48.427 " stroke="none" fill="#f6f608" fill-rule="evenodd"></path><path id="path3" d="M53.912 26.500 C 53.912 32.779,53.933 35.348,53.958 32.208 C 53.984 29.069,53.984 23.931,53.958 20.792 C 53.933 17.652,53.912 20.221,53.912 26.500 M306.205 19.079 L 306.167 23.075 304.960 24.329 L 303.753 25.583 305.046 24.329 L 306.340 23.074 306.292 19.079 L 306.244 15.083 306.205 19.079 M34.905 19.250 C 34.905 21.450,34.929 22.327,34.958 21.199 C 34.987 20.071,34.987 18.271,34.958 17.199 C 34.929 16.127,34.905 17.050,34.905 19.250 M164.167 19.500 L 162.750 19.605 164.115 19.636 C 164.881 19.653,165.526 19.593,165.583 19.500 C 165.640 19.408,165.663 19.347,165.635 19.364 C 165.607 19.381,164.946 19.442,164.167 19.500 M136.000 19.625 C 136.000 19.694,136.431 19.729,136.958 19.703 C 138.631 19.621,138.795 19.551,137.375 19.525 C 136.619 19.511,136.000 19.556,136.000 19.625 M140.667 19.603 C 141.647 19.727,143.000 19.740,143.000 19.625 C 143.000 19.556,142.381 19.511,141.625 19.525 C 140.869 19.539,140.438 19.574,140.667 19.603 M168.380 19.624 C 169.278 19.663,169.642 19.738,169.563 19.866 C 169.494 19.978,169.524 20.005,169.641 19.933 C 170.124 19.634,169.733 19.502,168.458 19.534 L 167.083 19.567 168.380 19.624 M196.704 25.790 C 196.743 28.276,196.790 28.749,197.000 28.764 C 197.144 28.774,197.162 28.752,197.042 28.712 C 196.886 28.660,196.833 27.930,196.833 25.825 L 196.833 23.008 199.708 22.958 L 202.583 22.908 199.621 22.871 L 196.659 22.833 196.704 25.790 M97.871 26.292 L 97.909 29.583 97.958 26.378 L 98.007 23.173 101.545 23.125 L 105.083 23.076 101.458 23.038 L 97.833 23.000 97.871 26.292 M218.894 24.583 C 218.895 25.500,218.923 25.854,218.956 25.369 C 218.990 24.885,218.990 24.135,218.956 23.703 C 218.921 23.270,218.894 23.667,218.894 24.583 M372.705 26.292 L 372.742 29.583 372.791 26.378 L 372.841 23.173 376.462 23.125 L 380.083 23.076 376.375 23.038 L 372.667 23.000 372.705 26.292 M395.889 24.833 C 395.889 25.521,395.919 25.802,395.955 25.458 C 395.991 25.115,395.991 24.552,395.955 24.208 C 395.919 23.865,395.889 24.146,395.889 24.833 M134.833 25.806 C 134.833 25.938,134.405 26.000,133.500 26.000 C 132.767 26.000,132.166 26.056,132.166 26.125 C 132.166 26.194,132.747 26.226,133.458 26.196 C 134.681 26.145,135.202 25.980,134.947 25.725 C 134.885 25.662,134.833 25.699,134.833 25.806 M153.507 25.909 C 153.396 26.042,153.341 26.286,153.384 26.450 C 153.446 26.691,153.465 26.677,153.481 26.383 C 153.491 26.182,153.631 25.940,153.792 25.847 C 153.952 25.753,153.999 25.675,153.895 25.672 C 153.792 25.669,153.617 25.776,153.507 25.909 M168.000 26.000 L 166.583 26.105 167.948 26.136 C 168.714 26.153,169.359 26.093,169.417 26.000 C 169.473 25.908,169.496 25.847,169.468 25.864 C 169.440 25.881,168.779 25.942,168.000 26.000 M136.833 26.103 C 137.814 26.227,139.167 26.240,139.167 26.125 C 139.167 26.056,138.548 26.011,137.792 26.025 C 137.035 26.039,136.604 26.074,136.833 26.103 M171.333 26.103 C 172.314 26.227,173.667 26.240,173.667 26.125 C 173.667 26.056,173.048 26.011,172.292 26.025 C 171.535 26.039,171.104 26.074,171.333 26.103 M332.116 26.440 C 331.938 26.618,331.979 26.866,332.167 26.750 C 332.258 26.693,332.333 26.739,332.333 26.851 C 332.333 26.964,332.378 27.011,332.432 26.957 C 332.486 26.903,332.463 26.738,332.381 26.591 C 332.299 26.444,332.179 26.376,332.116 26.440 M146.121 27.120 C 146.417 27.157,146.942 27.158,147.288 27.122 C 147.634 27.086,147.392 27.055,146.750 27.055 C 146.108 27.054,145.825 27.083,146.121 27.120 M154.241 32.333 C 154.241 35.129,154.263 36.273,154.291 34.875 C 154.319 33.477,154.319 31.190,154.291 29.792 C 154.263 28.394,154.241 29.537,154.241 32.333 M157.536 29.542 L 157.500 31.667 157.958 31.644 C 158.344 31.625,158.358 31.610,158.047 31.550 C 157.692 31.481,157.675 31.393,157.624 29.447 L 157.572 27.417 157.536 29.542 M144.906 29.583 L 144.917 31.083 146.667 31.092 L 148.417 31.100 146.715 31.045 L 145.013 30.989 144.954 29.536 L 144.895 28.083 144.906 29.583 M296.831 32.292 L 294.583 34.583 296.875 32.336 C 298.135 31.099,299.167 30.068,299.167 30.044 C 299.167 29.924,298.919 30.163,296.831 32.292 M164.333 32.552 C 164.333 32.581,164.577 32.825,164.875 33.094 L 165.417 33.583 164.927 33.042 C 164.471 32.537,164.333 32.423,164.333 32.552 M144.906 32.884 C 144.860 33.004,144.846 34.035,144.875 35.176 L 144.928 37.250 144.964 35.047 L 145.000 32.845 146.792 32.791 L 148.583 32.737 146.786 32.702 C 145.436 32.675,144.969 32.721,144.906 32.884 M134.000 33.306 C 134.000 33.435,133.542 33.511,132.625 33.534 L 131.250 33.567 132.568 33.624 C 133.786 33.677,134.406 33.517,134.114 33.225 C 134.051 33.162,134.000 33.199,134.000 33.306 M157.572 33.385 C 157.526 33.505,157.513 34.462,157.542 35.510 L 157.595 37.417 157.631 35.387 C 157.665 33.427,157.680 33.354,158.042 33.284 L 158.417 33.212 158.036 33.189 C 157.827 33.177,157.618 33.265,157.572 33.385 M168.848 33.489 C 167.568 33.575,167.473 33.605,167.755 33.833 C 167.933 33.977,168.011 33.995,167.939 33.875 C 167.843 33.716,168.091 33.667,168.980 33.667 C 169.622 33.667,170.193 33.592,170.250 33.500 C 170.307 33.408,170.330 33.347,170.302 33.364 C 170.273 33.381,169.619 33.438,168.848 33.489 M136.292 33.622 C 136.681 33.657,137.319 33.657,137.708 33.622 C 138.098 33.587,137.779 33.558,137.000 33.558 C 136.221 33.558,135.902 33.587,136.292 33.622 M172.167 33.603 C 173.147 33.727,174.500 33.740,174.500 33.625 C 174.500 33.556,173.881 33.511,173.125 33.525 C 172.369 33.539,171.938 33.574,172.167 33.603 M162.375 35.250 C 162.377 35.617,162.411 35.747,162.451 35.540 C 162.491 35.332,162.490 35.032,162.448 34.873 C 162.406 34.714,162.374 34.883,162.375 35.250 M165.879 35.500 C 165.879 35.912,165.911 36.081,165.951 35.875 C 165.991 35.669,165.991 35.331,165.951 35.125 C 165.911 34.919,165.879 35.087,165.879 35.500 M78.387 37.333 C 78.387 37.929,78.417 38.173,78.454 37.875 C 78.491 37.577,78.491 37.090,78.454 36.792 C 78.417 36.494,78.387 36.737,78.387 37.333 M196.705 40.042 L 196.667 43.500 197.042 43.481 C 197.318 43.466,197.341 43.442,197.128 43.386 C 196.869 43.318,196.835 42.970,196.791 39.947 L 196.743 36.583 196.705 40.042 M19.637 37.125 C 22.325 37.151,26.675 37.151,29.304 37.125 C 31.932 37.099,29.733 37.078,24.417 37.078 C 19.100 37.078,16.949 37.099,19.637 37.125 M97.833 44.783 C 97.787 48.743,97.807 51.926,97.877 51.857 C 97.947 51.787,97.984 48.547,97.960 44.656 L 97.916 37.583 97.833 44.783 M146.208 37.790 C 146.735 37.823,147.598 37.823,148.125 37.790 C 148.652 37.757,148.221 37.730,147.167 37.730 C 146.112 37.730,145.681 37.757,146.208 37.790 M372.743 44.833 C 372.743 48.821,372.765 50.452,372.791 48.458 C 372.818 46.465,372.818 43.202,372.791 41.208 C 372.765 39.215,372.743 40.846,372.743 44.833 M240.836 38.042 C 240.834 38.254,240.958 38.328,241.292 38.314 C 241.643 38.299,241.672 38.275,241.417 38.211 C 241.233 38.166,241.028 38.043,240.961 37.939 C 240.883 37.819,240.838 37.857,240.836 38.042 M327.833 38.196 C 327.833 38.271,328.058 38.333,328.333 38.333 C 328.608 38.333,328.833 38.304,328.833 38.269 C 328.833 38.233,328.608 38.171,328.333 38.131 C 328.058 38.091,327.833 38.120,327.833 38.196 M78.205 39.000 C 78.205 39.321,78.240 39.452,78.282 39.292 C 78.323 39.131,78.323 38.869,78.282 38.708 C 78.240 38.548,78.205 38.679,78.205 39.000 M393.697 39.084 C 393.802 39.314,393.910 39.479,393.937 39.452 C 394.039 39.350,393.789 38.667,393.651 38.667 C 393.572 38.667,393.593 38.854,393.697 39.084 M143.542 39.291 C 144.985 39.319,147.348 39.319,148.792 39.291 C 150.235 39.264,149.054 39.241,146.167 39.241 C 143.279 39.241,142.098 39.264,143.542 39.291 M155.698 39.291 C 156.862 39.320,158.812 39.320,160.032 39.291 C 161.252 39.263,160.300 39.239,157.917 39.239 C 155.533 39.239,154.535 39.263,155.698 39.291 M394.178 40.083 C 394.178 40.175,394.286 40.438,394.417 40.667 C 394.548 40.896,394.655 41.008,394.655 40.917 C 394.655 40.825,394.548 40.563,394.417 40.333 C 394.286 40.104,394.178 39.992,394.178 40.083 M137.942 40.708 C 137.985 40.777,138.549 40.833,139.197 40.833 C 140.293 40.833,140.359 40.853,140.148 41.125 C 139.981 41.341,140.024 41.331,140.314 41.083 L 140.706 40.750 140.311 40.713 C 139.115 40.602,137.874 40.599,137.942 40.708 M169.648 40.716 C 169.722 40.789,170.375 40.826,171.099 40.798 L 172.417 40.747 170.966 40.665 C 170.168 40.620,169.575 40.643,169.648 40.716 M133.667 40.823 C 133.667 40.910,133.753 41.034,133.859 41.099 C 133.976 41.171,134.006 41.145,133.937 41.033 C 133.858 40.905,134.222 40.830,135.120 40.791 L 136.417 40.734 135.042 40.700 C 134.270 40.681,133.667 40.735,133.667 40.823 M165.333 40.792 C 165.333 40.860,165.764 40.895,166.291 40.870 C 167.964 40.787,168.128 40.717,166.708 40.692 C 165.952 40.678,165.333 40.723,165.333 40.792 M286.044 43.286 C 286.297 43.325,286.672 43.324,286.877 43.284 C 287.082 43.244,286.875 43.213,286.417 43.214 C 285.958 43.216,285.791 43.248,286.044 43.286 M35.666 48.034 C 35.621 50.206,35.641 51.926,35.712 51.855 C 35.782 51.785,35.819 50.007,35.795 47.905 L 35.749 44.083 35.666 48.034 M306.572 48.083 C 306.572 50.283,306.596 51.160,306.625 50.032 C 306.653 48.904,306.653 47.104,306.624 46.032 C 306.595 44.960,306.572 45.883,306.572 48.083 M164.542 46.167 C 164.595 46.362,164.914 46.419,166.013 46.428 L 167.417 46.440 166.088 46.379 C 165.309 46.343,164.701 46.235,164.617 46.117 C 164.516 45.975,164.494 45.990,164.542 46.167 M138.500 46.396 C 138.500 46.431,138.627 46.562,138.782 46.688 C 138.954 46.828,139.017 46.838,138.943 46.716 C 138.855 46.568,139.145 46.500,140.036 46.457 L 141.250 46.400 139.875 46.366 C 139.119 46.348,138.500 46.362,138.500 46.396 M144.130 46.457 C 144.965 46.497,145.308 46.572,145.230 46.700 C 145.160 46.812,145.191 46.838,145.308 46.766 C 145.782 46.472,145.406 46.336,144.208 46.366 L 142.917 46.400 144.130 46.457 M160.333 46.458 C 160.333 46.527,160.764 46.562,161.291 46.536 C 162.964 46.454,163.128 46.384,161.708 46.358 C 160.952 46.345,160.333 46.390,160.333 46.458 M74.333 48.250 C 73.928 48.663,73.635 49.000,73.681 49.000 C 73.726 49.000,74.095 48.663,74.500 48.250 C 74.905 47.837,75.199 47.500,75.153 47.500 C 75.107 47.500,74.738 47.837,74.333 48.250 M157.709 49.333 C 157.762 49.529,158.081 49.586,159.180 49.595 L 160.583 49.607 159.255 49.546 C 158.476 49.510,157.868 49.402,157.784 49.284 C 157.683 49.142,157.661 49.156,157.709 49.333 M145.388 49.610 C 145.505 49.727,147.864 49.691,147.985 49.571 C 148.024 49.532,147.431 49.500,146.667 49.500 C 145.903 49.500,145.327 49.550,145.388 49.610 M149.849 49.571 C 149.969 49.691,152.329 49.727,152.446 49.610 C 152.506 49.550,151.931 49.500,151.167 49.500 C 150.403 49.500,149.810 49.532,149.849 49.571 M153.500 49.625 C 153.500 49.694,153.931 49.729,154.458 49.703 C 156.131 49.621,156.295 49.551,154.875 49.525 C 154.119 49.511,153.500 49.556,153.500 49.625 M208.375 51.782 C 208.535 51.823,208.798 51.823,208.958 51.782 C 209.119 51.740,208.987 51.705,208.667 51.705 C 208.346 51.705,208.215 51.740,208.375 51.782 M56.375 52.453 C 56.627 52.491,57.040 52.491,57.292 52.453 C 57.544 52.415,57.337 52.383,56.833 52.383 C 56.329 52.383,56.123 52.415,56.375 52.453 M62.042 52.453 C 62.294 52.491,62.706 52.491,62.958 52.453 C 63.210 52.415,63.004 52.383,62.500 52.383 C 61.996 52.383,61.790 52.415,62.042 52.453 M58.708 52.623 C 59.235 52.656,60.098 52.656,60.625 52.623 C 61.152 52.590,60.721 52.563,59.667 52.563 C 58.612 52.563,58.181 52.590,58.708 52.623 " stroke="none" fill="#7c7c7b" fill-rule="evenodd"></path></g></svg>